<svg width="109" height="64" viewBox="0 0 109 64" fill="none" xmlns="http://www.w3.org/2000/svg">
<g filter="url(#filter0_d)">
<rect x="4" y="5.10713" width="92.1053" height="50.8929" rx="7" fill="black"/>
<rect x="5" y="6.10713" width="90.1053" height="48.8929" rx="6" stroke="black" stroke-width="2" stroke-miterlimit="16" stroke-linecap="round" stroke-linejoin="round"/>
</g>
<g filter="url(#filter1_d)">
<rect x="12" width="92.1053" height="50.8929" rx="7" fill="white"/>
<rect x="13" y="1" width="90.1053" height="48.8929" rx="6" stroke="black" stroke-width="2" stroke-miterlimit="16" stroke-linecap="round" stroke-linejoin="round"/>
</g>
<path d="M41.386 31V19.264H45.4C46.012 19.264 46.576 19.312 47.092 19.408C47.62 19.492 48.076 19.648 48.46 19.876C48.856 20.104 49.162 20.404 49.378 20.776C49.606 21.148 49.72 21.616 49.72 22.18C49.72 22.444 49.684 22.708 49.612 22.972C49.54 23.236 49.438 23.482 49.306 23.71C49.174 23.938 49.012 24.142 48.82 24.322C48.64 24.502 48.43 24.634 48.19 24.718V24.79C48.49 24.862 48.766 24.976 49.018 25.132C49.27 25.276 49.492 25.462 49.684 25.69C49.876 25.918 50.026 26.188 50.134 26.5C50.242 26.8 50.296 27.148 50.296 27.544C50.296 28.144 50.176 28.66 49.936 29.092C49.708 29.524 49.384 29.884 48.964 30.172C48.556 30.448 48.076 30.658 47.524 30.802C46.972 30.934 46.378 31 45.742 31H41.386ZM44.032 23.962H45.274C45.922 23.962 46.39 23.836 46.678 23.584C46.978 23.332 47.128 22.996 47.128 22.576C47.128 22.12 46.978 21.796 46.678 21.604C46.378 21.412 45.916 21.316 45.292 21.316H44.032V23.962ZM44.032 28.948H45.526C46.978 28.948 47.704 28.42 47.704 27.364C47.704 26.848 47.524 26.482 47.164 26.266C46.804 26.038 46.258 25.924 45.526 25.924H44.032V28.948ZM52.742 34.492C52.466 34.492 52.232 34.474 52.04 34.438C51.848 34.414 51.662 34.372 51.482 34.312L51.95 32.296C52.034 32.32 52.13 32.344 52.238 32.368C52.346 32.392 52.448 32.404 52.544 32.404C52.988 32.404 53.33 32.296 53.57 32.08C53.81 31.864 53.99 31.582 54.11 31.234L54.236 30.766L50.798 22.072H53.462L54.74 25.906C54.872 26.314 54.992 26.728 55.1 27.148C55.208 27.568 55.322 28 55.442 28.444H55.514C55.61 28.024 55.706 27.604 55.802 27.184C55.91 26.752 56.018 26.326 56.126 25.906L57.206 22.072H59.744L56.648 31.09C56.432 31.654 56.204 32.146 55.964 32.566C55.736 32.998 55.466 33.352 55.154 33.628C54.854 33.916 54.506 34.132 54.11 34.276C53.726 34.42 53.27 34.492 52.742 34.492ZM63.5688 31.216C63.1128 31.216 62.7288 31.144 62.4168 31C62.1048 30.856 61.8528 30.658 61.6608 30.406C61.4808 30.142 61.3488 29.83 61.2648 29.47C61.1808 29.098 61.1388 28.684 61.1388 28.228V18.382H63.7848V28.336C63.7848 28.612 63.8328 28.804 63.9288 28.912C64.0368 29.02 64.1448 29.074 64.2528 29.074C64.3128 29.074 64.3608 29.074 64.3968 29.074C64.4448 29.074 64.5048 29.062 64.5768 29.038L64.9008 31C64.7568 31.06 64.5708 31.108 64.3428 31.144C64.1268 31.192 63.8688 31.216 63.5688 31.216ZM69.4751 31.216C68.9231 31.216 68.4191 31.108 67.9631 30.892C67.5191 30.676 67.1351 30.37 66.8111 29.974C66.4991 29.566 66.2531 29.074 66.0731 28.498C65.9051 27.922 65.8211 27.268 65.8211 26.536C65.8211 25.804 65.9231 25.15 66.1271 24.574C66.3431 23.998 66.6191 23.512 66.9551 23.116C67.3031 22.708 67.6991 22.396 68.1431 22.18C68.5991 21.964 69.0611 21.856 69.5291 21.856C70.0331 21.856 70.4471 21.94 70.7711 22.108C71.0951 22.276 71.4131 22.504 71.7251 22.792L71.6171 21.424V18.382H74.2631V31H72.1031L71.9231 30.118H71.8511C71.5391 30.43 71.1731 30.694 70.7531 30.91C70.3331 31.114 69.9071 31.216 69.4751 31.216ZM70.1591 29.056C70.4471 29.056 70.7051 28.996 70.9331 28.876C71.1731 28.756 71.4011 28.546 71.6171 28.246V24.592C71.3771 24.376 71.1311 24.226 70.8791 24.142C70.6271 24.058 70.3811 24.016 70.1411 24.016C69.7211 24.016 69.3491 24.22 69.0251 24.628C68.7011 25.024 68.5391 25.648 68.5391 26.5C68.5391 27.388 68.6771 28.036 68.9531 28.444C69.2411 28.852 69.6431 29.056 70.1591 29.056Z" fill="black"/>
<defs>
<filter id="filter0_d" x="0" y="5.10713" width="100.105" height="58.8929" filterUnits="userSpaceOnUse" color-interpolation-filters="sRGB">
<feFlood flood-opacity="0" result="BackgroundImageFix"/>
<feColorMatrix in="SourceAlpha" type="matrix" values="0 0 0 0 0 0 0 0 0 0 0 0 0 0 0 0 0 0 127 0"/>
<feOffset dy="4"/>
<feGaussianBlur stdDeviation="2"/>
<feColorMatrix type="matrix" values="0 0 0 0 0 0 0 0 0 0 0 0 0 0 0 0 0 0 0.39 0"/>
<feBlend mode="normal" in2="BackgroundImageFix" result="effect1_dropShadow"/>
<feBlend mode="normal" in="SourceGraphic" in2="effect1_dropShadow" result="shape"/>
</filter>
<filter id="filter1_d" x="8" y="0" width="100.105" height="58.8929" filterUnits="userSpaceOnUse" color-interpolation-filters="sRGB">
<feFlood flood-opacity="0" result="BackgroundImageFix"/>
<feColorMatrix in="SourceAlpha" type="matrix" values="0 0 0 0 0 0 0 0 0 0 0 0 0 0 0 0 0 0 127 0"/>
<feOffset dy="4"/>
<feGaussianBlur stdDeviation="2"/>
<feColorMatrix type="matrix" values="0 0 0 0 0 0 0 0 0 0 0 0 0 0 0 0 0 0 0.39 0"/>
<feBlend mode="normal" in2="BackgroundImageFix" result="effect1_dropShadow"/>
<feBlend mode="normal" in="SourceGraphic" in2="effect1_dropShadow" result="shape"/>
</filter>
</defs>
</svg>
