<svg width="1120" height="279" viewBox="0 0 1120 279" fill="none" xmlns="http://www.w3.org/2000/svg">
<rect width="419" height="35" transform="translate(1)" fill="white"/>
<path fill-rule="evenodd" clip-rule="evenodd" d="M26.5 25C30.6421 25 34 21.6421 34 17.5C34 13.3579 30.6421 10 26.5 10C22.3579 10 19 13.3579 19 17.5C19 21.6421 22.3579 25 26.5 25Z" fill="black"/>
<path fill-rule="evenodd" clip-rule="evenodd" d="M49.5 25C53.6421 25 57 21.6421 57 17.5C57 13.3579 53.6421 10 49.5 10C45.3579 10 42 13.3579 42 17.5C42 21.6421 45.3579 25 49.5 25Z" fill="black"/>
<path fill-rule="evenodd" clip-rule="evenodd" d="M72.5 25C76.6421 25 80 21.6421 80 17.5C80 13.3579 76.6421 10 72.5 10C68.3579 10 65 13.3579 65 17.5C65 21.6421 68.3579 25 72.5 25Z" fill="black"/>
<path d="M1 34.5H0.5V35V278V278.5H1H420H420.5V278V35V34.5H420H1Z" fill="white" stroke="#EBEBEB"/>
<rect x="147" y="50" width="165" height="40" fill="#C4C4C4"/>
<rect x="147" y="105" width="246" height="99" fill="#C4C4C4"/>
<rect x="20" y="50" width="90" height="95" fill="#C4C4C4"/>
<rect x="305.5" y="232.5" width="86" height="27" stroke="black"/>
<path d="M373.16 76.64V74.24C372.456 74.16 371.712 73.968 370.928 73.664C370.16 73.344 369.496 72.928 368.936 72.416L370.472 70.04C371.08 70.504 371.656 70.856 372.2 71.096C372.76 71.32 373.328 71.432 373.904 71.432C374.576 71.432 375.064 71.296 375.368 71.024C375.688 70.752 375.848 70.336 375.848 69.776C375.848 69.36 375.688 69.008 375.368 68.72C375.064 68.432 374.672 68.16 374.192 67.904C373.728 67.632 373.224 67.368 372.68 67.112C372.136 66.84 371.624 66.52 371.144 66.152C370.68 65.784 370.288 65.352 369.968 64.856C369.664 64.36 369.512 63.752 369.512 63.032C369.512 61.848 369.832 60.872 370.472 60.104C371.128 59.32 372.024 58.816 373.16 58.592V56.12H375.488V58.544C376.256 58.656 376.928 58.888 377.504 59.24C378.08 59.592 378.6 60.016 379.064 60.512L377.288 62.528C376.856 62.128 376.44 61.832 376.04 61.64C375.64 61.432 375.184 61.328 374.672 61.328C374.096 61.328 373.656 61.448 373.352 61.688C373.048 61.928 372.896 62.32 372.896 62.864C372.896 63.248 373.048 63.576 373.352 63.848C373.672 64.104 374.064 64.352 374.528 64.592C375.008 64.832 375.52 65.08 376.064 65.336C376.608 65.592 377.112 65.904 377.576 66.272C378.056 66.64 378.448 67.088 378.752 67.616C379.072 68.128 379.232 68.768 379.232 69.536C379.232 70.688 378.92 71.68 378.296 72.512C377.672 73.328 376.736 73.872 375.488 74.144V76.64H373.16ZM385.84 76.64V74.24C385.136 74.16 384.392 73.968 383.608 73.664C382.84 73.344 382.176 72.928 381.616 72.416L383.152 70.04C383.76 70.504 384.336 70.856 384.88 71.096C385.44 71.32 386.008 71.432 386.584 71.432C387.256 71.432 387.744 71.296 388.048 71.024C388.368 70.752 388.528 70.336 388.528 69.776C388.528 69.36 388.368 69.008 388.048 68.72C387.744 68.432 387.352 68.16 386.872 67.904C386.408 67.632 385.904 67.368 385.36 67.112C384.816 66.84 384.304 66.52 383.824 66.152C383.36 65.784 382.968 65.352 382.648 64.856C382.344 64.36 382.192 63.752 382.192 63.032C382.192 61.848 382.512 60.872 383.152 60.104C383.808 59.32 384.704 58.816 385.84 58.592V56.12H388.168V58.544C388.936 58.656 389.608 58.888 390.184 59.24C390.76 59.592 391.28 60.016 391.744 60.512L389.968 62.528C389.536 62.128 389.12 61.832 388.72 61.64C388.32 61.432 387.864 61.328 387.352 61.328C386.776 61.328 386.336 61.448 386.032 61.688C385.728 61.928 385.576 62.32 385.576 62.864C385.576 63.248 385.728 63.576 386.032 63.848C386.352 64.104 386.744 64.352 387.208 64.592C387.688 64.832 388.2 65.08 388.744 65.336C389.288 65.592 389.792 65.904 390.256 66.272C390.736 66.64 391.128 67.088 391.432 67.616C391.752 68.128 391.912 68.768 391.912 69.536C391.912 70.688 391.6 71.68 390.976 72.512C390.352 73.328 389.416 73.872 388.168 74.144V76.64H385.84Z" fill="black"/>
<path d="M330.188 250.144C329.692 250.144 329.224 250.06 328.784 249.892C328.344 249.716 327.956 249.46 327.62 249.124C327.292 248.788 327.032 248.372 326.84 247.876C326.648 247.372 326.552 246.792 326.552 246.136C326.552 245.488 326.652 244.912 326.852 244.408C327.052 243.896 327.32 243.464 327.656 243.112C327.992 242.76 328.384 242.492 328.832 242.308C329.28 242.124 329.752 242.032 330.248 242.032C330.752 242.032 331.204 242.136 331.604 242.344C332.004 242.544 332.336 242.78 332.6 243.052L331.664 244.18C331.464 243.996 331.252 243.848 331.028 243.736C330.812 243.616 330.564 243.556 330.284 243.556C330.02 243.556 329.768 243.616 329.528 243.736C329.296 243.848 329.092 244.012 328.916 244.228C328.748 244.444 328.612 244.708 328.508 245.02C328.412 245.332 328.364 245.684 328.364 246.076C328.364 246.884 328.536 247.512 328.88 247.96C329.224 248.4 329.684 248.62 330.26 248.62C330.58 248.62 330.864 248.552 331.112 248.416C331.368 248.272 331.592 248.096 331.784 247.888L332.72 248.992C332.064 249.76 331.22 250.144 330.188 250.144ZM333.764 250V241.588H335.528V243.652L335.444 244.72C335.668 244.52 335.928 244.336 336.224 244.168C336.52 243.992 336.872 243.904 337.28 243.904C337.928 243.904 338.396 244.116 338.684 244.54C338.98 244.964 339.128 245.552 339.128 246.304V250H337.364V246.532C337.364 246.1 337.304 245.804 337.184 245.644C337.072 245.484 336.888 245.404 336.632 245.404C336.408 245.404 336.216 245.456 336.056 245.56C335.896 245.656 335.72 245.796 335.528 245.98V250H333.764ZM343.284 250.144C342.86 250.144 342.464 250.076 342.096 249.94C341.728 249.796 341.408 249.592 341.136 249.328C340.864 249.056 340.652 248.728 340.5 248.344C340.348 247.96 340.272 247.52 340.272 247.024C340.272 246.544 340.352 246.112 340.512 245.728C340.672 245.336 340.88 245.008 341.136 244.744C341.4 244.472 341.7 244.264 342.036 244.12C342.372 243.976 342.72 243.904 343.08 243.904C343.504 243.904 343.872 243.976 344.184 244.12C344.504 244.264 344.768 244.464 344.976 244.72C345.192 244.976 345.352 245.28 345.456 245.632C345.56 245.976 345.612 246.352 345.612 246.76C345.612 246.92 345.604 247.072 345.588 247.216C345.572 247.36 345.556 247.468 345.54 247.54H341.976C342.056 247.972 342.232 248.292 342.504 248.5C342.784 248.7 343.124 248.8 343.524 248.8C343.948 248.8 344.376 248.668 344.808 248.404L345.396 249.472C345.092 249.68 344.752 249.844 344.376 249.964C344.008 250.084 343.644 250.144 343.284 250.144ZM341.964 246.376H344.112C344.112 246.04 344.036 245.768 343.884 245.56C343.732 245.352 343.476 245.248 343.116 245.248C342.836 245.248 342.588 245.34 342.372 245.524C342.164 245.708 342.028 245.992 341.964 246.376ZM349.423 250.144C349.007 250.144 348.619 250.076 348.259 249.94C347.907 249.796 347.599 249.592 347.335 249.328C347.071 249.064 346.863 248.74 346.711 248.356C346.559 247.964 346.483 247.52 346.483 247.024C346.483 246.528 346.567 246.088 346.735 245.704C346.903 245.312 347.127 244.984 347.407 244.72C347.695 244.456 348.027 244.256 348.403 244.12C348.779 243.976 349.171 243.904 349.579 243.904C349.947 243.904 350.271 243.964 350.551 244.084C350.839 244.204 351.095 244.356 351.319 244.54L350.491 245.68C350.211 245.448 349.943 245.332 349.687 245.332C349.255 245.332 348.915 245.484 348.667 245.788C348.419 246.092 348.295 246.504 348.295 247.024C348.295 247.544 348.419 247.956 348.667 248.26C348.923 248.564 349.243 248.716 349.627 248.716C349.819 248.716 350.003 248.676 350.179 248.596C350.363 248.508 350.535 248.404 350.695 248.284L351.391 249.436C351.095 249.692 350.775 249.876 350.431 249.988C350.087 250.092 349.751 250.144 349.423 250.144ZM352.432 250V241.588H354.148V246.412H354.196L356.08 244.048H358L355.912 246.496L358.156 250H356.248L354.904 247.684L354.148 248.536V250H352.432ZM361.223 250.144C360.847 250.144 360.483 250.076 360.131 249.94C359.779 249.796 359.467 249.592 359.195 249.328C358.931 249.064 358.719 248.74 358.559 248.356C358.399 247.964 358.319 247.52 358.319 247.024C358.319 246.528 358.399 246.088 358.559 245.704C358.719 245.312 358.931 244.984 359.195 244.72C359.467 244.456 359.779 244.256 360.131 244.12C360.483 243.976 360.847 243.904 361.223 243.904C361.599 243.904 361.959 243.976 362.303 244.12C362.655 244.256 362.963 244.456 363.227 244.72C363.499 244.984 363.715 245.312 363.875 245.704C364.035 246.088 364.115 246.528 364.115 247.024C364.115 247.52 364.035 247.964 363.875 248.356C363.715 248.74 363.499 249.064 363.227 249.328C362.963 249.592 362.655 249.796 362.303 249.94C361.959 250.076 361.599 250.144 361.223 250.144ZM361.223 248.716C361.583 248.716 361.855 248.564 362.039 248.26C362.223 247.956 362.315 247.544 362.315 247.024C362.315 246.504 362.223 246.092 362.039 245.788C361.855 245.484 361.583 245.332 361.223 245.332C360.855 245.332 360.579 245.484 360.395 245.788C360.219 246.092 360.131 246.504 360.131 247.024C360.131 247.544 360.219 247.956 360.395 248.26C360.579 248.564 360.855 248.716 361.223 248.716ZM367.111 250.144C366.463 250.144 365.991 249.932 365.695 249.508C365.407 249.084 365.263 248.496 365.263 247.744V244.048H367.027V247.516C367.027 247.948 367.087 248.244 367.207 248.404C367.327 248.564 367.515 248.644 367.771 248.644C367.995 248.644 368.183 248.592 368.335 248.488C368.487 248.384 368.651 248.216 368.827 247.984V244.048H370.591V250H369.151L369.019 249.172H368.983C368.727 249.476 368.451 249.716 368.155 249.892C367.867 250.06 367.519 250.144 367.111 250.144ZM374.435 250.144C374.067 250.144 373.751 250.088 373.487 249.976C373.231 249.864 373.019 249.708 372.851 249.508C372.691 249.308 372.571 249.068 372.491 248.788C372.419 248.5 372.383 248.184 372.383 247.84V245.428H371.567V244.12L372.479 244.048L372.683 242.464H374.147V244.048H375.575V245.428H374.147V247.816C374.147 248.152 374.215 248.396 374.351 248.548C374.495 248.692 374.683 248.764 374.915 248.764C375.011 248.764 375.107 248.752 375.203 248.728C375.307 248.704 375.399 248.676 375.479 248.644L375.755 249.928C375.595 249.976 375.407 250.024 375.191 250.072C374.975 250.12 374.723 250.144 374.435 250.144Z" fill="black"/>
<g filter="url(#filter0_d)">
<rect x="983" y="65" width="125" height="50" rx="7" fill="black"/>
<rect x="984" y="66" width="123" height="48" rx="6" stroke="black" stroke-width="2" stroke-miterlimit="16" stroke-linecap="round" stroke-linejoin="round"/>
</g>
<g filter="url(#filter1_d)">
<rect x="991" y="59" width="125" height="50" rx="7" fill="white"/>
<rect x="992" y="60" width="123" height="48" rx="6" stroke="black" stroke-width="2" stroke-miterlimit="16" stroke-linecap="round" stroke-linejoin="round"/>
</g>
<path d="M1023.91 90.576V81.056H1025.59L1025.73 81.742H1025.79C1026.06 81.4993 1026.36 81.2987 1026.7 81.14C1027.04 80.972 1027.4 80.888 1027.76 80.888C1028.18 80.888 1028.56 80.972 1028.89 81.14C1029.23 81.308 1029.51 81.546 1029.75 81.854C1029.98 82.162 1030.16 82.5353 1030.28 82.974C1030.41 83.4033 1030.48 83.884 1030.48 84.416C1030.48 85.0133 1030.39 85.5453 1030.22 86.012C1030.07 86.4693 1029.85 86.8613 1029.57 87.188C1029.3 87.5053 1028.98 87.748 1028.63 87.916C1028.28 88.084 1027.92 88.168 1027.55 88.168C1027.25 88.168 1026.96 88.1073 1026.68 87.986C1026.4 87.8553 1026.14 87.6733 1025.9 87.44L1025.97 88.546V90.576H1023.91ZM1027.07 86.488C1027.43 86.488 1027.73 86.3293 1027.98 86.012C1028.24 85.6853 1028.36 85.1627 1028.36 84.444C1028.36 83.1933 1027.96 82.568 1027.16 82.568C1026.76 82.568 1026.36 82.778 1025.97 83.198V86.04C1026.15 86.208 1026.34 86.3247 1026.53 86.39C1026.71 86.4553 1026.9 86.488 1027.07 86.488ZM1033.54 88.168C1033.22 88.168 1032.93 88.112 1032.67 88C1032.42 87.8973 1032.2 87.7527 1032.02 87.566C1031.85 87.37 1031.71 87.146 1031.6 86.894C1031.51 86.642 1031.46 86.3667 1031.46 86.068C1031.46 85.34 1031.77 84.7707 1032.39 84.36C1033 83.9493 1034 83.674 1035.37 83.534C1035.35 83.226 1035.26 82.9833 1035.09 82.806C1034.93 82.6193 1034.66 82.526 1034.28 82.526C1033.98 82.526 1033.68 82.582 1033.38 82.694C1033.09 82.806 1032.78 82.96 1032.44 83.156L1031.7 81.798C1032.15 81.5273 1032.62 81.308 1033.1 81.14C1033.6 80.972 1034.12 80.888 1034.67 80.888C1035.57 80.888 1036.25 81.1447 1036.71 81.658C1037.19 82.162 1037.43 82.9507 1037.43 84.024V88H1035.75L1035.61 87.286H1035.55C1035.25 87.5473 1034.94 87.762 1034.61 87.93C1034.29 88.0887 1033.93 88.168 1033.54 88.168ZM1034.24 86.572C1034.47 86.572 1034.67 86.5207 1034.84 86.418C1035.01 86.3153 1035.18 86.1707 1035.37 85.984V84.766C1034.64 84.8687 1034.14 85.018 1033.86 85.214C1033.58 85.41 1033.44 85.6433 1033.44 85.914C1033.44 86.138 1033.51 86.306 1033.65 86.418C1033.8 86.5207 1033.99 86.572 1034.24 86.572ZM1039.94 90.716C1039.72 90.716 1039.54 90.702 1039.39 90.674C1039.24 90.6553 1039.1 90.6227 1038.96 90.576L1039.32 89.008C1039.39 89.0267 1039.46 89.0453 1039.55 89.064C1039.63 89.0827 1039.71 89.092 1039.78 89.092C1040.13 89.092 1040.4 89.008 1040.58 88.84C1040.77 88.672 1040.91 88.4527 1041 88.182L1041.1 87.818L1038.43 81.056H1040.5L1041.49 84.038C1041.59 84.3553 1041.69 84.6773 1041.77 85.004C1041.86 85.3307 1041.94 85.6667 1042.04 86.012H1042.09C1042.17 85.6853 1042.24 85.3587 1042.32 85.032C1042.4 84.696 1042.49 84.3647 1042.57 84.038L1043.41 81.056H1045.38L1042.98 88.07C1042.81 88.5087 1042.63 88.8913 1042.44 89.218C1042.27 89.554 1042.06 89.8293 1041.81 90.044C1041.58 90.268 1041.31 90.436 1041 90.548C1040.7 90.66 1040.35 90.716 1039.94 90.716ZM1046.47 88V81.056H1048.15L1048.29 81.952H1048.34C1048.63 81.6627 1048.94 81.4153 1049.27 81.21C1049.6 80.9953 1049.99 80.888 1050.44 80.888C1050.94 80.888 1051.34 80.9907 1051.63 81.196C1051.94 81.392 1052.19 81.6767 1052.36 82.05C1052.67 81.7327 1052.99 81.462 1053.33 81.238C1053.67 81.0047 1054.08 80.888 1054.55 80.888C1055.29 80.888 1055.84 81.14 1056.18 81.644C1056.54 82.1387 1056.72 82.82 1056.72 83.688V88H1054.66V83.954C1054.66 83.45 1054.59 83.1047 1054.45 82.918C1054.32 82.7313 1054.1 82.638 1053.8 82.638C1053.46 82.638 1053.06 82.862 1052.61 83.31V88H1050.56V83.954C1050.56 83.45 1050.49 83.1047 1050.35 82.918C1050.22 82.7313 1050 82.638 1049.7 82.638C1049.35 82.638 1048.96 82.862 1048.53 83.31V88H1046.47ZM1061.58 88.168C1061.09 88.168 1060.62 88.0887 1060.19 87.93C1059.77 87.762 1059.39 87.524 1059.07 87.216C1058.76 86.8987 1058.51 86.516 1058.33 86.068C1058.16 85.62 1058.07 85.1067 1058.07 84.528C1058.07 83.968 1058.16 83.464 1058.35 83.016C1058.53 82.5587 1058.78 82.176 1059.07 81.868C1059.38 81.5507 1059.73 81.308 1060.12 81.14C1060.52 80.972 1060.92 80.888 1061.34 80.888C1061.84 80.888 1062.27 80.972 1062.63 81.14C1063 81.308 1063.31 81.5413 1063.55 81.84C1063.81 82.1387 1063.99 82.4933 1064.11 82.904C1064.24 83.3053 1064.3 83.744 1064.3 84.22C1064.3 84.4067 1064.29 84.584 1064.27 84.752C1064.25 84.92 1064.23 85.046 1064.21 85.13H1060.05C1060.15 85.634 1060.35 86.0073 1060.67 86.25C1061 86.4833 1061.39 86.6 1061.86 86.6C1062.36 86.6 1062.85 86.446 1063.36 86.138L1064.04 87.384C1063.69 87.6267 1063.29 87.818 1062.85 87.958C1062.43 88.098 1062 88.168 1061.58 88.168ZM1060.04 83.772H1062.55C1062.55 83.38 1062.46 83.0627 1062.28 82.82C1062.1 82.5773 1061.8 82.456 1061.38 82.456C1061.06 82.456 1060.77 82.5633 1060.52 82.778C1060.27 82.9927 1060.12 83.324 1060.04 83.772ZM1065.72 88V81.056H1067.4L1067.54 81.938H1067.59C1067.89 81.658 1068.22 81.4153 1068.57 81.21C1068.93 80.9953 1069.34 80.888 1069.82 80.888C1070.58 80.888 1071.12 81.1353 1071.46 81.63C1071.8 82.1247 1071.98 82.8107 1071.98 83.688V88H1069.92V83.954C1069.92 83.45 1069.85 83.1047 1069.71 82.918C1069.58 82.7313 1069.36 82.638 1069.06 82.638C1068.8 82.638 1068.58 82.6987 1068.39 82.82C1068.21 82.932 1068 83.0953 1067.78 83.31V88H1065.72ZM1076.4 88.168C1075.97 88.168 1075.61 88.1027 1075.3 87.972C1075 87.8413 1074.75 87.6593 1074.56 87.426C1074.37 87.1927 1074.23 86.9127 1074.14 86.586C1074.05 86.25 1074.01 85.8813 1074.01 85.48V82.666H1073.06V81.14L1074.12 81.056L1074.36 79.208H1076.07V81.056H1077.73V82.666H1076.07V85.452C1076.07 85.844 1076.15 86.1287 1076.31 86.306C1076.47 86.474 1076.69 86.558 1076.96 86.558C1077.08 86.558 1077.19 86.544 1077.3 86.516C1077.42 86.488 1077.53 86.4553 1077.62 86.418L1077.94 87.916C1077.76 87.972 1077.54 88.028 1077.29 88.084C1077.03 88.14 1076.74 88.168 1076.4 88.168ZM1081 88.168C1080.54 88.168 1080.07 88.0793 1079.58 87.902C1079.11 87.7247 1078.69 87.4913 1078.34 87.202L1079.26 85.914C1079.58 86.1567 1079.88 86.3387 1080.17 86.46C1080.46 86.5813 1080.75 86.642 1081.05 86.642C1081.36 86.642 1081.58 86.5907 1081.72 86.488C1081.86 86.3853 1081.93 86.2407 1081.93 86.054C1081.93 85.942 1081.89 85.844 1081.81 85.76C1081.73 85.6667 1081.63 85.5827 1081.49 85.508C1081.36 85.4333 1081.21 85.368 1081.04 85.312C1080.87 85.2467 1080.7 85.1767 1080.52 85.102C1080.31 85.018 1080.09 84.92 1079.88 84.808C1079.66 84.696 1079.47 84.5607 1079.29 84.402C1079.11 84.234 1078.97 84.0427 1078.85 83.828C1078.74 83.604 1078.69 83.3473 1078.69 83.058C1078.69 82.7407 1078.75 82.4467 1078.87 82.176C1079 81.9053 1079.18 81.6767 1079.41 81.49C1079.65 81.3033 1079.93 81.1587 1080.25 81.056C1080.58 80.944 1080.95 80.888 1081.35 80.888C1081.88 80.888 1082.35 80.9813 1082.75 81.168C1083.15 81.3453 1083.5 81.546 1083.8 81.77L1082.87 83.002C1082.62 82.8153 1082.37 82.6707 1082.13 82.568C1081.89 82.4653 1081.65 82.414 1081.4 82.414C1080.88 82.414 1080.62 82.596 1080.62 82.96C1080.62 83.072 1080.66 83.17 1080.73 83.254C1080.81 83.3287 1080.9 83.3987 1081.02 83.464C1081.16 83.5293 1081.3 83.5947 1081.46 83.66C1081.63 83.716 1081.8 83.7767 1081.98 83.842C1082.2 83.926 1082.42 84.024 1082.63 84.136C1082.86 84.2387 1083.06 84.3693 1083.24 84.528C1083.42 84.6867 1083.57 84.8827 1083.68 85.116C1083.8 85.34 1083.85 85.6107 1083.85 85.928C1083.85 86.2453 1083.79 86.5393 1083.67 86.81C1083.55 87.0807 1083.37 87.3187 1083.12 87.524C1082.88 87.72 1082.58 87.8787 1082.23 88C1081.87 88.112 1081.46 88.168 1081 88.168Z" fill="black"/>
<g filter="url(#filter2_d)">
<rect x="674" y="65" width="125" height="50" rx="7" fill="black"/>
<rect x="675" y="66" width="123" height="48" rx="6" stroke="black" stroke-width="2" stroke-miterlimit="16" stroke-linecap="round" stroke-linejoin="round"/>
</g>
<g filter="url(#filter3_d)">
<rect x="682" y="59" width="125" height="50" rx="7" fill="white"/>
<rect x="683" y="60" width="123" height="48" rx="6" stroke="black" stroke-width="2" stroke-miterlimit="16" stroke-linecap="round" stroke-linejoin="round"/>
</g>
<path d="M732.892 88.168C732.453 88.168 732.029 88.0887 731.618 87.93C731.207 87.762 730.843 87.524 730.526 87.216C730.218 86.908 729.971 86.53 729.784 86.082C729.597 85.6247 729.504 85.1067 729.504 84.528C729.504 83.9493 729.597 83.436 729.784 82.988C729.971 82.5307 730.218 82.148 730.526 81.84C730.843 81.532 731.207 81.2987 731.618 81.14C732.029 80.972 732.453 80.888 732.892 80.888C733.331 80.888 733.751 80.972 734.152 81.14C734.563 81.2987 734.922 81.532 735.23 81.84C735.547 82.148 735.799 82.5307 735.986 82.988C736.173 83.436 736.266 83.9493 736.266 84.528C736.266 85.1067 736.173 85.6247 735.986 86.082C735.799 86.53 735.547 86.908 735.23 87.216C734.922 87.524 734.563 87.762 734.152 87.93C733.751 88.0887 733.331 88.168 732.892 88.168ZM732.892 86.502C733.312 86.502 733.629 86.3247 733.844 85.97C734.059 85.6153 734.166 85.1347 734.166 84.528C734.166 83.9213 734.059 83.4407 733.844 83.086C733.629 82.7313 733.312 82.554 732.892 82.554C732.463 82.554 732.141 82.7313 731.926 83.086C731.721 83.4407 731.618 83.9213 731.618 84.528C731.618 85.1347 731.721 85.6153 731.926 85.97C732.141 86.3247 732.463 86.502 732.892 86.502ZM737.676 88V81.056H739.356L739.496 82.274H739.552C739.804 81.798 740.107 81.448 740.462 81.224C740.816 81 741.171 80.888 741.526 80.888C741.722 80.888 741.88 80.902 742.002 80.93C742.132 80.9487 742.249 80.9813 742.352 81.028L742.016 82.806C741.885 82.7687 741.764 82.7407 741.652 82.722C741.54 82.7033 741.409 82.694 741.26 82.694C740.998 82.694 740.723 82.7873 740.434 82.974C740.154 83.1607 739.92 83.492 739.734 83.968V88H737.676ZM745.595 88.168C745.166 88.168 744.774 88.084 744.419 87.916C744.074 87.748 743.775 87.51 743.523 87.202C743.28 86.8847 743.089 86.502 742.949 86.054C742.818 85.606 742.753 85.0973 742.753 84.528C742.753 83.9587 742.832 83.45 742.991 83.002C743.159 82.554 743.374 82.176 743.635 81.868C743.906 81.5507 744.214 81.308 744.559 81.14C744.914 80.972 745.273 80.888 745.637 80.888C746.029 80.888 746.351 80.9533 746.603 81.084C746.855 81.2147 747.102 81.392 747.345 81.616L747.261 80.552V78.186H749.319V88H747.639L747.499 87.314H747.443C747.2 87.5567 746.916 87.762 746.589 87.93C746.262 88.0887 745.931 88.168 745.595 88.168ZM746.127 86.488C746.351 86.488 746.552 86.4413 746.729 86.348C746.916 86.2547 747.093 86.0913 747.261 85.858V83.016C747.074 82.848 746.883 82.7313 746.687 82.666C746.491 82.6007 746.3 82.568 746.113 82.568C745.786 82.568 745.497 82.7267 745.245 83.044C744.993 83.352 744.867 83.8373 744.867 84.5C744.867 85.1907 744.974 85.6947 745.189 86.012C745.413 86.3293 745.726 86.488 746.127 86.488ZM754.25 88.168C753.756 88.168 753.294 88.0887 752.864 87.93C752.435 87.762 752.062 87.524 751.744 87.216C751.427 86.8987 751.18 86.516 751.002 86.068C750.825 85.62 750.736 85.1067 750.736 84.528C750.736 83.968 750.83 83.464 751.016 83.016C751.203 82.5587 751.446 82.176 751.744 81.868C752.052 81.5507 752.402 81.308 752.794 81.14C753.186 80.972 753.592 80.888 754.012 80.888C754.507 80.888 754.936 80.972 755.3 81.14C755.674 81.308 755.982 81.5413 756.224 81.84C756.476 82.1387 756.663 82.4933 756.784 82.904C756.906 83.3053 756.966 83.744 756.966 84.22C756.966 84.4067 756.957 84.584 756.938 84.752C756.92 84.92 756.901 85.046 756.882 85.13H752.724C752.818 85.634 753.023 86.0073 753.34 86.25C753.667 86.4833 754.064 86.6 754.53 86.6C755.025 86.6 755.524 86.446 756.028 86.138L756.714 87.384C756.36 87.6267 755.963 87.818 755.524 87.958C755.095 88.098 754.67 88.168 754.25 88.168ZM752.71 83.772H755.216C755.216 83.38 755.128 83.0627 754.95 82.82C754.773 82.5773 754.474 82.456 754.054 82.456C753.728 82.456 753.438 82.5633 753.186 82.778C752.944 82.9927 752.785 83.324 752.71 83.772ZM758.389 88V81.056H760.069L760.209 82.274H760.265C760.517 81.798 760.82 81.448 761.175 81.224C761.529 81 761.884 80.888 762.239 80.888C762.435 80.888 762.593 80.902 762.715 80.93C762.845 80.9487 762.962 80.9813 763.065 81.028L762.729 82.806C762.598 82.7687 762.477 82.7407 762.365 82.722C762.253 82.7033 762.122 82.694 761.973 82.694C761.711 82.694 761.436 82.7873 761.147 82.974C760.867 83.1607 760.633 83.492 760.447 83.968V88H758.389Z" fill="black"/>
<g filter="url(#filter4_d)">
<rect x="674" y="155" width="125" height="50" rx="7" fill="black"/>
<rect x="675" y="156" width="123" height="48" rx="6" stroke="black" stroke-width="2" stroke-miterlimit="16" stroke-linecap="round" stroke-linejoin="round"/>
</g>
<g filter="url(#filter5_d)">
<rect x="682" y="149" width="125" height="50" rx="7" fill="white"/>
<rect x="683" y="150" width="123" height="48" rx="6" stroke="black" stroke-width="2" stroke-miterlimit="16" stroke-linecap="round" stroke-linejoin="round"/>
</g>
<path d="M721.954 178.168C721.497 178.168 721.025 178.079 720.54 177.902C720.064 177.725 719.649 177.491 719.294 177.202L720.218 175.914C720.535 176.157 720.839 176.339 721.128 176.46C721.417 176.581 721.711 176.642 722.01 176.642C722.318 176.642 722.542 176.591 722.682 176.488C722.822 176.385 722.892 176.241 722.892 176.054C722.892 175.942 722.85 175.844 722.766 175.76C722.691 175.667 722.584 175.583 722.444 175.508C722.313 175.433 722.164 175.368 721.996 175.312C721.828 175.247 721.655 175.177 721.478 175.102C721.263 175.018 721.049 174.92 720.834 174.808C720.619 174.696 720.423 174.561 720.246 174.402C720.069 174.234 719.924 174.043 719.812 173.828C719.7 173.604 719.644 173.347 719.644 173.058C719.644 172.741 719.705 172.447 719.826 172.176C719.957 171.905 720.139 171.677 720.372 171.49C720.605 171.303 720.885 171.159 721.212 171.056C721.539 170.944 721.903 170.888 722.304 170.888C722.836 170.888 723.303 170.981 723.704 171.168C724.105 171.345 724.455 171.546 724.754 171.77L723.83 173.002C723.578 172.815 723.331 172.671 723.088 172.568C722.845 172.465 722.603 172.414 722.36 172.414C721.837 172.414 721.576 172.596 721.576 172.96C721.576 173.072 721.613 173.17 721.688 173.254C721.763 173.329 721.861 173.399 721.982 173.464C722.113 173.529 722.257 173.595 722.416 173.66C722.584 173.716 722.757 173.777 722.934 173.842C723.158 173.926 723.377 174.024 723.592 174.136C723.816 174.239 724.017 174.369 724.194 174.528C724.381 174.687 724.53 174.883 724.642 175.116C724.754 175.34 724.81 175.611 724.81 175.928C724.81 176.245 724.749 176.539 724.628 176.81C724.507 177.081 724.325 177.319 724.082 177.524C723.839 177.72 723.541 177.879 723.186 178C722.831 178.112 722.421 178.168 721.954 178.168ZM726.117 178V168.186H728.175V170.594L728.077 171.84C728.338 171.607 728.642 171.392 728.987 171.196C729.332 170.991 729.743 170.888 730.219 170.888C730.975 170.888 731.521 171.135 731.857 171.63C732.202 172.125 732.375 172.811 732.375 173.688V178H730.317V173.954C730.317 173.45 730.247 173.105 730.107 172.918C729.976 172.731 729.762 172.638 729.463 172.638C729.202 172.638 728.978 172.699 728.791 172.82C728.604 172.932 728.399 173.095 728.175 173.31V178H726.117ZM734.115 178V171.056H736.173V178H734.115ZM735.137 170.034C734.792 170.034 734.507 169.936 734.283 169.74C734.059 169.535 733.947 169.273 733.947 168.956C733.947 168.639 734.059 168.382 734.283 168.186C734.507 167.99 734.792 167.892 735.137 167.892C735.492 167.892 735.776 167.99 735.991 168.186C736.215 168.382 736.327 168.639 736.327 168.956C736.327 169.273 736.215 169.535 735.991 169.74C735.776 169.936 735.492 170.034 735.137 170.034ZM737.984 180.576V171.056H739.664L739.804 171.742H739.86C740.131 171.499 740.434 171.299 740.77 171.14C741.116 170.972 741.47 170.888 741.834 170.888C742.254 170.888 742.632 170.972 742.968 171.14C743.304 171.308 743.589 171.546 743.822 171.854C744.056 172.162 744.233 172.535 744.354 172.974C744.485 173.403 744.55 173.884 744.55 174.416C744.55 175.013 744.466 175.545 744.298 176.012C744.14 176.469 743.92 176.861 743.64 177.188C743.37 177.505 743.057 177.748 742.702 177.916C742.357 178.084 741.998 178.168 741.624 178.168C741.326 178.168 741.036 178.107 740.756 177.986C740.476 177.855 740.215 177.673 739.972 177.44L740.042 178.546V180.576H737.984ZM741.148 176.488C741.503 176.488 741.806 176.329 742.058 176.012C742.31 175.685 742.436 175.163 742.436 174.444C742.436 173.193 742.035 172.568 741.232 172.568C740.831 172.568 740.434 172.778 740.042 173.198V176.04C740.229 176.208 740.416 176.325 740.602 176.39C740.789 176.455 740.971 176.488 741.148 176.488ZM746.01 180.576V171.056H747.69L747.83 171.742H747.886C748.156 171.499 748.46 171.299 748.796 171.14C749.141 170.972 749.496 170.888 749.86 170.888C750.28 170.888 750.658 170.972 750.994 171.14C751.33 171.308 751.614 171.546 751.848 171.854C752.081 172.162 752.258 172.535 752.38 172.974C752.51 173.403 752.576 173.884 752.576 174.416C752.576 175.013 752.492 175.545 752.324 176.012C752.165 176.469 751.946 176.861 751.666 177.188C751.395 177.505 751.082 177.748 750.728 177.916C750.382 178.084 750.023 178.168 749.65 178.168C749.351 178.168 749.062 178.107 748.782 177.986C748.502 177.855 748.24 177.673 747.998 177.44L748.068 178.546V180.576H746.01ZM749.174 176.488C749.528 176.488 749.832 176.329 750.084 176.012C750.336 175.685 750.462 175.163 750.462 174.444C750.462 173.193 750.06 172.568 749.258 172.568C748.856 172.568 748.46 172.778 748.068 173.198V176.04C748.254 176.208 748.441 176.325 748.628 176.39C748.814 176.455 748.996 176.488 749.174 176.488ZM754.035 178V171.056H756.093V178H754.035ZM755.057 170.034C754.712 170.034 754.427 169.936 754.203 169.74C753.979 169.535 753.867 169.273 753.867 168.956C753.867 168.639 753.979 168.382 754.203 168.186C754.427 167.99 754.712 167.892 755.057 167.892C755.412 167.892 755.696 167.99 755.911 168.186C756.135 168.382 756.247 168.639 756.247 168.956C756.247 169.273 756.135 169.535 755.911 169.74C755.696 169.936 755.412 170.034 755.057 170.034ZM757.904 178V171.056H759.584L759.724 171.938H759.78C760.079 171.658 760.405 171.415 760.76 171.21C761.115 170.995 761.53 170.888 762.006 170.888C762.762 170.888 763.308 171.135 763.644 171.63C763.989 172.125 764.162 172.811 764.162 173.688V178H762.104V173.954C762.104 173.45 762.034 173.105 761.894 172.918C761.763 172.731 761.549 172.638 761.25 172.638C760.989 172.638 760.765 172.699 760.578 172.82C760.391 172.932 760.186 173.095 759.962 173.31V178H757.904ZM768.394 180.954C767.983 180.954 767.601 180.917 767.246 180.842C766.901 180.777 766.593 180.674 766.322 180.534C766.061 180.394 765.855 180.212 765.706 179.988C765.557 179.764 765.482 179.498 765.482 179.19C765.482 178.63 765.813 178.163 766.476 177.79V177.734C766.289 177.613 766.135 177.459 766.014 177.272C765.893 177.085 765.832 176.847 765.832 176.558C765.832 176.306 765.907 176.068 766.056 175.844C766.205 175.611 766.392 175.415 766.616 175.256V175.2C766.373 175.032 766.154 174.794 765.958 174.486C765.771 174.169 765.678 173.805 765.678 173.394C765.678 172.974 765.757 172.61 765.916 172.302C766.075 171.985 766.285 171.723 766.546 171.518C766.817 171.303 767.125 171.145 767.47 171.042C767.815 170.939 768.175 170.888 768.548 170.888C768.959 170.888 769.318 170.944 769.626 171.056H772.16V172.554H771.054C771.119 172.657 771.171 172.787 771.208 172.946C771.255 173.105 771.278 173.277 771.278 173.464C771.278 173.865 771.208 174.215 771.068 174.514C770.928 174.803 770.732 175.046 770.48 175.242C770.237 175.429 769.948 175.569 769.612 175.662C769.285 175.755 768.931 175.802 768.548 175.802C768.277 175.802 767.997 175.755 767.708 175.662C767.615 175.737 767.549 175.811 767.512 175.886C767.475 175.961 767.456 176.059 767.456 176.18C767.456 176.357 767.531 176.488 767.68 176.572C767.839 176.656 768.114 176.698 768.506 176.698H769.626C770.485 176.698 771.138 176.838 771.586 177.118C772.043 177.389 772.272 177.837 772.272 178.462C772.272 178.826 772.179 179.157 771.992 179.456C771.815 179.764 771.558 180.025 771.222 180.24C770.886 180.464 770.48 180.637 770.004 180.758C769.528 180.889 768.991 180.954 768.394 180.954ZM768.548 174.556C768.819 174.556 769.043 174.463 769.22 174.276C769.407 174.08 769.5 173.786 769.5 173.394C769.5 173.03 769.407 172.755 769.22 172.568C769.043 172.372 768.819 172.274 768.548 172.274C768.277 172.274 768.049 172.367 767.862 172.554C767.685 172.741 767.596 173.021 767.596 173.394C767.596 173.786 767.685 174.08 767.862 174.276C768.049 174.463 768.277 174.556 768.548 174.556ZM768.716 179.666C769.183 179.666 769.565 179.582 769.864 179.414C770.163 179.255 770.312 179.055 770.312 178.812C770.312 178.597 770.219 178.453 770.032 178.378C769.855 178.303 769.593 178.266 769.248 178.266H768.534C768.291 178.266 768.095 178.257 767.946 178.238C767.797 178.229 767.666 178.21 767.554 178.182C767.302 178.406 767.176 178.635 767.176 178.868C767.176 179.129 767.316 179.325 767.596 179.456C767.876 179.596 768.249 179.666 768.716 179.666Z" fill="black"/>
<g filter="url(#filter6_d)">
<rect x="834" y="65" width="125" height="50" rx="7" fill="black"/>
<rect x="835" y="66" width="123" height="48" rx="6" stroke="black" stroke-width="2" stroke-miterlimit="16" stroke-linecap="round" stroke-linejoin="round"/>
</g>
<g filter="url(#filter7_d)">
<rect x="842" y="59" width="125" height="50" rx="7" fill="white"/>
<rect x="843" y="60" width="123" height="48" rx="6" stroke="black" stroke-width="2" stroke-miterlimit="16" stroke-linecap="round" stroke-linejoin="round"/>
</g>
<path d="M873.91 87V80.056H875.968V87H873.91ZM874.932 79.034C874.587 79.034 874.302 78.936 874.078 78.74C873.854 78.5347 873.742 78.2733 873.742 77.956C873.742 77.6387 873.854 77.382 874.078 77.186C874.302 76.99 874.587 76.892 874.932 76.892C875.287 76.892 875.571 76.99 875.786 77.186C876.01 77.382 876.122 77.6387 876.122 77.956C876.122 78.2733 876.01 78.5347 875.786 78.74C875.571 78.936 875.287 79.034 874.932 79.034ZM877.779 87V80.056H879.459L879.599 80.938H879.655C879.954 80.658 880.28 80.4153 880.635 80.21C880.99 79.9953 881.405 79.888 881.881 79.888C882.637 79.888 883.183 80.1353 883.519 80.63C883.864 81.1247 884.037 81.8107 884.037 82.688V87H881.979V82.954C881.979 82.45 881.909 82.1047 881.769 81.918C881.638 81.7313 881.424 81.638 881.125 81.638C880.864 81.638 880.64 81.6987 880.453 81.82C880.266 81.932 880.061 82.0953 879.837 82.31V87H877.779ZM887.387 87L885.049 80.056H887.121L888.017 83.332C888.11 83.6773 888.199 84.032 888.283 84.396C888.376 84.7507 888.47 85.11 888.563 85.474H888.619C888.703 85.11 888.787 84.7507 888.871 84.396C888.964 84.032 889.058 83.6773 889.151 83.332L890.061 80.056H892.035L889.767 87H887.387ZM896.118 87.168C895.623 87.168 895.161 87.0887 894.732 86.93C894.302 86.762 893.929 86.524 893.612 86.216C893.294 85.8987 893.047 85.516 892.87 85.068C892.692 84.62 892.604 84.1067 892.604 83.528C892.604 82.968 892.697 82.464 892.884 82.016C893.07 81.5587 893.313 81.176 893.612 80.868C893.92 80.5507 894.27 80.308 894.662 80.14C895.054 79.972 895.46 79.888 895.88 79.888C896.374 79.888 896.804 79.972 897.168 80.14C897.541 80.308 897.849 80.5413 898.092 80.84C898.344 81.1387 898.53 81.4933 898.652 81.904C898.773 82.3053 898.834 82.744 898.834 83.22C898.834 83.4067 898.824 83.584 898.806 83.752C898.787 83.92 898.768 84.046 898.75 84.13H894.592C894.685 84.634 894.89 85.0073 895.208 85.25C895.534 85.4833 895.931 85.6 896.398 85.6C896.892 85.6 897.392 85.446 897.896 85.138L898.582 86.384C898.227 86.6267 897.83 86.818 897.392 86.958C896.962 87.098 896.538 87.168 896.118 87.168ZM894.578 82.772H897.084C897.084 82.38 896.995 82.0627 896.818 81.82C896.64 81.5773 896.342 81.456 895.922 81.456C895.595 81.456 895.306 81.5633 895.054 81.778C894.811 81.9927 894.652 82.324 894.578 82.772ZM900.256 87V80.056H901.936L902.076 80.938H902.132C902.43 80.658 902.757 80.4153 903.112 80.21C903.466 79.9953 903.882 79.888 904.358 79.888C905.114 79.888 905.66 80.1353 905.996 80.63C906.341 81.1247 906.514 81.8107 906.514 82.688V87H904.456V82.954C904.456 82.45 904.386 82.1047 904.246 81.918C904.115 81.7313 903.9 81.638 903.602 81.638C903.34 81.638 903.116 81.6987 902.93 81.82C902.743 81.932 902.538 82.0953 902.314 82.31V87H900.256ZM910.941 87.168C910.512 87.168 910.143 87.1027 909.835 86.972C909.537 86.8413 909.289 86.6593 909.093 86.426C908.907 86.1927 908.767 85.9127 908.673 85.586C908.589 85.25 908.547 84.8813 908.547 84.48V81.666H907.595V80.14L908.659 80.056L908.897 78.208H910.605V80.056H912.271V81.666H910.605V84.452C910.605 84.844 910.685 85.1287 910.843 85.306C911.011 85.474 911.231 85.558 911.501 85.558C911.613 85.558 911.725 85.544 911.837 85.516C911.959 85.488 912.066 85.4553 912.159 85.418L912.481 86.916C912.295 86.972 912.075 87.028 911.823 87.084C911.571 87.14 911.277 87.168 910.941 87.168ZM916.363 87.168C915.924 87.168 915.499 87.0887 915.089 86.93C914.678 86.762 914.314 86.524 913.997 86.216C913.689 85.908 913.441 85.53 913.255 85.082C913.068 84.6247 912.975 84.1067 912.975 83.528C912.975 82.9493 913.068 82.436 913.255 81.988C913.441 81.5307 913.689 81.148 913.997 80.84C914.314 80.532 914.678 80.2987 915.089 80.14C915.499 79.972 915.924 79.888 916.363 79.888C916.801 79.888 917.221 79.972 917.623 80.14C918.033 80.2987 918.393 80.532 918.701 80.84C919.018 81.148 919.27 81.5307 919.457 81.988C919.643 82.436 919.737 82.9493 919.737 83.528C919.737 84.1067 919.643 84.6247 919.457 85.082C919.27 85.53 919.018 85.908 918.701 86.216C918.393 86.524 918.033 86.762 917.623 86.93C917.221 87.0887 916.801 87.168 916.363 87.168ZM916.363 85.502C916.783 85.502 917.1 85.3247 917.315 84.97C917.529 84.6153 917.637 84.1347 917.637 83.528C917.637 82.9213 917.529 82.4407 917.315 82.086C917.1 81.7313 916.783 81.554 916.363 81.554C915.933 81.554 915.611 81.7313 915.397 82.086C915.191 82.4407 915.089 82.9213 915.089 83.528C915.089 84.1347 915.191 84.6153 915.397 84.97C915.611 85.3247 915.933 85.502 916.363 85.502ZM921.146 87V80.056H922.826L922.966 81.274H923.022C923.274 80.798 923.578 80.448 923.932 80.224C924.287 80 924.642 79.888 924.996 79.888C925.192 79.888 925.351 79.902 925.472 79.93C925.603 79.9487 925.72 79.9813 925.822 80.028L925.486 81.806C925.356 81.7687 925.234 81.7407 925.122 81.722C925.01 81.7033 924.88 81.694 924.73 81.694C924.469 81.694 924.194 81.7873 923.904 81.974C923.624 82.1607 923.391 82.492 923.204 82.968V87H921.146ZM927.59 89.716C927.375 89.716 927.193 89.702 927.044 89.674C926.895 89.6553 926.75 89.6227 926.61 89.576L926.974 88.008C927.039 88.0267 927.114 88.0453 927.198 88.064C927.282 88.0827 927.361 88.092 927.436 88.092C927.781 88.092 928.047 88.008 928.234 87.84C928.421 87.672 928.561 87.4527 928.654 87.182L928.752 86.818L926.078 80.056H928.15L929.144 83.038C929.247 83.3553 929.34 83.6773 929.424 84.004C929.508 84.3307 929.597 84.6667 929.69 85.012H929.746C929.821 84.6853 929.895 84.3587 929.97 84.032C930.054 83.696 930.138 83.3647 930.222 83.038L931.062 80.056H933.036L930.628 87.07C930.46 87.5087 930.283 87.8913 930.096 88.218C929.919 88.554 929.709 88.8293 929.466 89.044C929.233 89.268 928.962 89.436 928.654 89.548C928.355 89.66 928.001 89.716 927.59 89.716Z" fill="black"/>
<g filter="url(#filter8_d)">
<rect x="471" y="115" width="125" height="50" rx="7" fill="black"/>
<rect x="472" y="116" width="123" height="48" rx="6" stroke="black" stroke-width="2" stroke-miterlimit="16" stroke-linecap="round" stroke-linejoin="round"/>
</g>
<g filter="url(#filter9_d)">
<rect x="479" y="109" width="125" height="50" rx="7" fill="white"/>
<rect x="480" y="110" width="123" height="48" rx="6" stroke="black" stroke-width="2" stroke-miterlimit="16" stroke-linecap="round" stroke-linejoin="round"/>
</g>
<path d="M530.388 140.954C529.977 140.954 529.595 140.917 529.24 140.842C528.895 140.777 528.587 140.674 528.316 140.534C528.055 140.394 527.849 140.212 527.7 139.988C527.551 139.764 527.476 139.498 527.476 139.19C527.476 138.63 527.807 138.163 528.47 137.79V137.734C528.283 137.613 528.129 137.459 528.008 137.272C527.887 137.085 527.826 136.847 527.826 136.558C527.826 136.306 527.901 136.068 528.05 135.844C528.199 135.611 528.386 135.415 528.61 135.256V135.2C528.367 135.032 528.148 134.794 527.952 134.486C527.765 134.169 527.672 133.805 527.672 133.394C527.672 132.974 527.751 132.61 527.91 132.302C528.069 131.985 528.279 131.723 528.54 131.518C528.811 131.303 529.119 131.145 529.464 131.042C529.809 130.939 530.169 130.888 530.542 130.888C530.953 130.888 531.312 130.944 531.62 131.056H534.154V132.554H533.048C533.113 132.657 533.165 132.787 533.202 132.946C533.249 133.105 533.272 133.277 533.272 133.464C533.272 133.865 533.202 134.215 533.062 134.514C532.922 134.803 532.726 135.046 532.474 135.242C532.231 135.429 531.942 135.569 531.606 135.662C531.279 135.755 530.925 135.802 530.542 135.802C530.271 135.802 529.991 135.755 529.702 135.662C529.609 135.737 529.543 135.811 529.506 135.886C529.469 135.961 529.45 136.059 529.45 136.18C529.45 136.357 529.525 136.488 529.674 136.572C529.833 136.656 530.108 136.698 530.5 136.698H531.62C532.479 136.698 533.132 136.838 533.58 137.118C534.037 137.389 534.266 137.837 534.266 138.462C534.266 138.826 534.173 139.157 533.986 139.456C533.809 139.764 533.552 140.025 533.216 140.24C532.88 140.464 532.474 140.637 531.998 140.758C531.522 140.889 530.985 140.954 530.388 140.954ZM530.542 134.556C530.813 134.556 531.037 134.463 531.214 134.276C531.401 134.08 531.494 133.786 531.494 133.394C531.494 133.03 531.401 132.755 531.214 132.568C531.037 132.372 530.813 132.274 530.542 132.274C530.271 132.274 530.043 132.367 529.856 132.554C529.679 132.741 529.59 133.021 529.59 133.394C529.59 133.786 529.679 134.08 529.856 134.276C530.043 134.463 530.271 134.556 530.542 134.556ZM530.71 139.666C531.177 139.666 531.559 139.582 531.858 139.414C532.157 139.255 532.306 139.055 532.306 138.812C532.306 138.597 532.213 138.453 532.026 138.378C531.849 138.303 531.587 138.266 531.242 138.266H530.528C530.285 138.266 530.089 138.257 529.94 138.238C529.791 138.229 529.66 138.21 529.548 138.182C529.296 138.406 529.17 138.635 529.17 138.868C529.17 139.129 529.31 139.325 529.59 139.456C529.87 139.596 530.243 139.666 530.71 139.666ZM536.879 138.168C536.561 138.168 536.272 138.112 536.011 138C535.759 137.897 535.544 137.753 535.367 137.566C535.189 137.37 535.049 137.146 534.947 136.894C534.853 136.642 534.807 136.367 534.807 136.068C534.807 135.34 535.115 134.771 535.731 134.36C536.347 133.949 537.341 133.674 538.713 133.534C538.694 133.226 538.601 132.983 538.433 132.806C538.274 132.619 538.003 132.526 537.621 132.526C537.322 132.526 537.023 132.582 536.725 132.694C536.435 132.806 536.123 132.96 535.787 133.156L535.045 131.798C535.493 131.527 535.959 131.308 536.445 131.14C536.939 130.972 537.462 130.888 538.013 130.888C538.909 130.888 539.59 131.145 540.057 131.658C540.533 132.162 540.771 132.951 540.771 134.024V138H539.091L538.951 137.286H538.895C538.596 137.547 538.283 137.762 537.957 137.93C537.63 138.089 537.271 138.168 536.879 138.168ZM537.579 136.572C537.812 136.572 538.013 136.521 538.181 136.418C538.349 136.315 538.526 136.171 538.713 135.984V134.766C537.985 134.869 537.481 135.018 537.201 135.214C536.921 135.41 536.781 135.643 536.781 135.914C536.781 136.138 536.851 136.306 536.991 136.418C537.14 136.521 537.336 136.572 537.579 136.572ZM544.939 138.168C544.51 138.168 544.141 138.103 543.833 137.972C543.535 137.841 543.287 137.659 543.091 137.426C542.905 137.193 542.765 136.913 542.671 136.586C542.587 136.25 542.545 135.881 542.545 135.48V132.666H541.593V131.14L542.657 131.056L542.895 129.208H544.603V131.056H546.269V132.666H544.603V135.452C544.603 135.844 544.683 136.129 544.841 136.306C545.009 136.474 545.229 136.558 545.499 136.558C545.611 136.558 545.723 136.544 545.835 136.516C545.957 136.488 546.064 136.455 546.157 136.418L546.479 137.916C546.293 137.972 546.073 138.028 545.821 138.084C545.569 138.14 545.275 138.168 544.939 138.168ZM550.487 138.168C549.992 138.168 549.53 138.089 549.101 137.93C548.671 137.762 548.298 137.524 547.981 137.216C547.663 136.899 547.416 136.516 547.239 136.068C547.061 135.62 546.973 135.107 546.973 134.528C546.973 133.968 547.066 133.464 547.253 133.016C547.439 132.559 547.682 132.176 547.981 131.868C548.289 131.551 548.639 131.308 549.031 131.14C549.423 130.972 549.829 130.888 550.249 130.888C550.743 130.888 551.173 130.972 551.537 131.14C551.91 131.308 552.218 131.541 552.461 131.84C552.713 132.139 552.899 132.493 553.021 132.904C553.142 133.305 553.203 133.744 553.203 134.22C553.203 134.407 553.193 134.584 553.175 134.752C553.156 134.92 553.137 135.046 553.119 135.13H548.961C549.054 135.634 549.259 136.007 549.577 136.25C549.903 136.483 550.3 136.6 550.767 136.6C551.261 136.6 551.761 136.446 552.265 136.138L552.951 137.384C552.596 137.627 552.199 137.818 551.761 137.958C551.331 138.098 550.907 138.168 550.487 138.168ZM548.947 133.772H551.453C551.453 133.38 551.364 133.063 551.187 132.82C551.009 132.577 550.711 132.456 550.291 132.456C549.964 132.456 549.675 132.563 549.423 132.778C549.18 132.993 549.021 133.324 548.947 133.772Z" fill="black"/>
<g filter="url(#filter10_d)">
<rect x="983" y="155" width="125" height="50" rx="7" fill="black"/>
<rect x="984" y="156" width="123" height="48" rx="6" stroke="black" stroke-width="2" stroke-miterlimit="16" stroke-linecap="round" stroke-linejoin="round"/>
</g>
<g filter="url(#filter11_d)">
<rect x="991" y="149" width="125" height="50" rx="7" fill="white"/>
<rect x="992" y="150" width="123" height="48" rx="6" stroke="black" stroke-width="2" stroke-miterlimit="16" stroke-linecap="round" stroke-linejoin="round"/>
</g>
<path d="M1018.91 178V171.056H1020.59L1020.73 171.952H1020.79C1021.08 171.663 1021.38 171.415 1021.71 171.21C1022.04 170.995 1022.43 170.888 1022.89 170.888C1023.38 170.888 1023.78 170.991 1024.08 171.196C1024.38 171.392 1024.63 171.677 1024.8 172.05C1025.11 171.733 1025.43 171.462 1025.77 171.238C1026.12 171.005 1026.52 170.888 1026.99 170.888C1027.73 170.888 1028.28 171.14 1028.63 171.644C1028.98 172.139 1029.16 172.82 1029.16 173.688V178H1027.1V173.954C1027.1 173.45 1027.03 173.105 1026.89 172.918C1026.76 172.731 1026.54 172.638 1026.25 172.638C1025.9 172.638 1025.5 172.862 1025.06 173.31V178H1023V173.954C1023 173.45 1022.93 173.105 1022.79 172.918C1022.66 172.731 1022.44 172.638 1022.14 172.638C1021.79 172.638 1021.4 172.862 1020.97 173.31V178H1018.91ZM1034.02 178.168C1033.53 178.168 1033.07 178.089 1032.64 177.93C1032.21 177.762 1031.83 177.524 1031.52 177.216C1031.2 176.899 1030.95 176.516 1030.77 176.068C1030.6 175.62 1030.51 175.107 1030.51 174.528C1030.51 173.968 1030.6 173.464 1030.79 173.016C1030.97 172.559 1031.22 172.176 1031.52 171.868C1031.82 171.551 1032.17 171.308 1032.57 171.14C1032.96 170.972 1033.36 170.888 1033.78 170.888C1034.28 170.888 1034.71 170.972 1035.07 171.14C1035.45 171.308 1035.75 171.541 1036 171.84C1036.25 172.139 1036.43 172.493 1036.56 172.904C1036.68 173.305 1036.74 173.744 1036.74 174.22C1036.74 174.407 1036.73 174.584 1036.71 174.752C1036.69 174.92 1036.67 175.046 1036.65 175.13H1032.5C1032.59 175.634 1032.79 176.007 1033.11 176.25C1033.44 176.483 1033.84 176.6 1034.3 176.6C1034.8 176.6 1035.3 176.446 1035.8 176.138L1036.49 177.384C1036.13 177.627 1035.73 177.818 1035.3 177.958C1034.87 178.098 1034.44 178.168 1034.02 178.168ZM1032.48 173.772H1034.99C1034.99 173.38 1034.9 173.063 1034.72 172.82C1034.54 172.577 1034.25 172.456 1033.83 172.456C1033.5 172.456 1033.21 172.563 1032.96 172.778C1032.72 172.993 1032.56 173.324 1032.48 173.772ZM1040.2 178.168C1039.75 178.168 1039.28 178.079 1038.79 177.902C1038.31 177.725 1037.9 177.491 1037.54 177.202L1038.47 175.914C1038.79 176.157 1039.09 176.339 1039.38 176.46C1039.67 176.581 1039.96 176.642 1040.26 176.642C1040.57 176.642 1040.79 176.591 1040.93 176.488C1041.07 176.385 1041.14 176.241 1041.14 176.054C1041.14 175.942 1041.1 175.844 1041.02 175.76C1040.94 175.667 1040.83 175.583 1040.69 175.508C1040.56 175.433 1040.41 175.368 1040.25 175.312C1040.08 175.247 1039.91 175.177 1039.73 175.102C1039.51 175.018 1039.3 174.92 1039.08 174.808C1038.87 174.696 1038.67 174.561 1038.5 174.402C1038.32 174.234 1038.17 174.043 1038.06 173.828C1037.95 173.604 1037.89 173.347 1037.89 173.058C1037.89 172.741 1037.95 172.447 1038.08 172.176C1038.21 171.905 1038.39 171.677 1038.62 171.49C1038.86 171.303 1039.14 171.159 1039.46 171.056C1039.79 170.944 1040.15 170.888 1040.55 170.888C1041.09 170.888 1041.55 170.981 1041.95 171.168C1042.36 171.345 1042.71 171.546 1043 171.77L1042.08 173.002C1041.83 172.815 1041.58 172.671 1041.34 172.568C1041.1 172.465 1040.85 172.414 1040.61 172.414C1040.09 172.414 1039.83 172.596 1039.83 172.96C1039.83 173.072 1039.86 173.17 1039.94 173.254C1040.01 173.329 1040.11 173.399 1040.23 173.464C1040.36 173.529 1040.51 173.595 1040.67 173.66C1040.83 173.716 1041.01 173.777 1041.18 173.842C1041.41 173.926 1041.63 174.024 1041.84 174.136C1042.07 174.239 1042.27 174.369 1042.44 174.528C1042.63 174.687 1042.78 174.883 1042.89 175.116C1043 175.34 1043.06 175.611 1043.06 175.928C1043.06 176.245 1043 176.539 1042.88 176.81C1042.76 177.081 1042.57 177.319 1042.33 177.524C1042.09 177.72 1041.79 177.879 1041.44 178C1041.08 178.112 1040.67 178.168 1040.2 178.168ZM1046.41 178.168C1045.95 178.168 1045.48 178.079 1045 177.902C1044.52 177.725 1044.11 177.491 1043.75 177.202L1044.68 175.914C1044.99 176.157 1045.3 176.339 1045.59 176.46C1045.87 176.581 1046.17 176.642 1046.47 176.642C1046.78 176.642 1047 176.591 1047.14 176.488C1047.28 176.385 1047.35 176.241 1047.35 176.054C1047.35 175.942 1047.31 175.844 1047.22 175.76C1047.15 175.667 1047.04 175.583 1046.9 175.508C1046.77 175.433 1046.62 175.368 1046.45 175.312C1046.29 175.247 1046.11 175.177 1045.94 175.102C1045.72 175.018 1045.51 174.92 1045.29 174.808C1045.08 174.696 1044.88 174.561 1044.7 174.402C1044.53 174.234 1044.38 174.043 1044.27 173.828C1044.16 173.604 1044.1 173.347 1044.1 173.058C1044.1 172.741 1044.16 172.447 1044.28 172.176C1044.41 171.905 1044.6 171.677 1044.83 171.49C1045.06 171.303 1045.34 171.159 1045.67 171.056C1046 170.944 1046.36 170.888 1046.76 170.888C1047.29 170.888 1047.76 170.981 1048.16 171.168C1048.56 171.345 1048.91 171.546 1049.21 171.77L1048.29 173.002C1048.04 172.815 1047.79 172.671 1047.55 172.568C1047.3 172.465 1047.06 172.414 1046.82 172.414C1046.29 172.414 1046.03 172.596 1046.03 172.96C1046.03 173.072 1046.07 173.17 1046.15 173.254C1046.22 173.329 1046.32 173.399 1046.44 173.464C1046.57 173.529 1046.71 173.595 1046.87 173.66C1047.04 173.716 1047.21 173.777 1047.39 173.842C1047.62 173.926 1047.83 174.024 1048.05 174.136C1048.27 174.239 1048.47 174.369 1048.65 174.528C1048.84 174.687 1048.99 174.883 1049.1 175.116C1049.21 175.34 1049.27 175.611 1049.27 175.928C1049.27 176.245 1049.21 176.539 1049.09 176.81C1048.96 177.081 1048.78 177.319 1048.54 177.524C1048.3 177.72 1048 177.879 1047.64 178C1047.29 178.112 1046.88 178.168 1046.41 178.168ZM1052.32 178.168C1052.01 178.168 1051.72 178.112 1051.46 178C1051.2 177.897 1050.99 177.753 1050.81 177.566C1050.63 177.37 1050.49 177.146 1050.39 176.894C1050.3 176.642 1050.25 176.367 1050.25 176.068C1050.25 175.34 1050.56 174.771 1051.18 174.36C1051.79 173.949 1052.79 173.674 1054.16 173.534C1054.14 173.226 1054.05 172.983 1053.88 172.806C1053.72 172.619 1053.45 172.526 1053.07 172.526C1052.77 172.526 1052.47 172.582 1052.17 172.694C1051.88 172.806 1051.57 172.96 1051.23 173.156L1050.49 171.798C1050.94 171.527 1051.4 171.308 1051.89 171.14C1052.38 170.972 1052.91 170.888 1053.46 170.888C1054.35 170.888 1055.04 171.145 1055.5 171.658C1055.98 172.162 1056.22 172.951 1056.22 174.024V178H1054.54L1054.4 177.286H1054.34C1054.04 177.547 1053.73 177.762 1053.4 177.93C1053.08 178.089 1052.72 178.168 1052.32 178.168ZM1053.02 176.572C1053.26 176.572 1053.46 176.521 1053.63 176.418C1053.79 176.315 1053.97 176.171 1054.16 175.984V174.766C1053.43 174.869 1052.93 175.018 1052.65 175.214C1052.37 175.41 1052.23 175.643 1052.23 175.914C1052.23 176.138 1052.3 176.306 1052.44 176.418C1052.59 176.521 1052.78 176.572 1053.02 176.572ZM1060.43 180.954C1060.02 180.954 1059.64 180.917 1059.29 180.842C1058.94 180.777 1058.63 180.674 1058.36 180.534C1058.1 180.394 1057.9 180.212 1057.75 179.988C1057.6 179.764 1057.52 179.498 1057.52 179.19C1057.52 178.63 1057.85 178.163 1058.52 177.79V177.734C1058.33 177.613 1058.18 177.459 1058.05 177.272C1057.93 177.085 1057.87 176.847 1057.87 176.558C1057.87 176.306 1057.95 176.068 1058.1 175.844C1058.25 175.611 1058.43 175.415 1058.66 175.256V175.2C1058.41 175.032 1058.19 174.794 1058 174.486C1057.81 174.169 1057.72 173.805 1057.72 173.394C1057.72 172.974 1057.8 172.61 1057.96 172.302C1058.12 171.985 1058.33 171.723 1058.59 171.518C1058.86 171.303 1059.17 171.145 1059.51 171.042C1059.86 170.939 1060.22 170.888 1060.59 170.888C1061 170.888 1061.36 170.944 1061.67 171.056H1064.2V172.554H1063.09C1063.16 172.657 1063.21 172.787 1063.25 172.946C1063.3 173.105 1063.32 173.277 1063.32 173.464C1063.32 173.865 1063.25 174.215 1063.11 174.514C1062.97 174.803 1062.77 175.046 1062.52 175.242C1062.28 175.429 1061.99 175.569 1061.65 175.662C1061.33 175.755 1060.97 175.802 1060.59 175.802C1060.32 175.802 1060.04 175.755 1059.75 175.662C1059.66 175.737 1059.59 175.811 1059.55 175.886C1059.52 175.961 1059.5 176.059 1059.5 176.18C1059.5 176.357 1059.57 176.488 1059.72 176.572C1059.88 176.656 1060.15 176.698 1060.55 176.698H1061.67C1062.53 176.698 1063.18 176.838 1063.63 177.118C1064.08 177.389 1064.31 177.837 1064.31 178.462C1064.31 178.826 1064.22 179.157 1064.03 179.456C1063.86 179.764 1063.6 180.025 1063.26 180.24C1062.93 180.464 1062.52 180.637 1062.04 180.758C1061.57 180.889 1061.03 180.954 1060.43 180.954ZM1060.59 174.556C1060.86 174.556 1061.08 174.463 1061.26 174.276C1061.45 174.08 1061.54 173.786 1061.54 173.394C1061.54 173.03 1061.45 172.755 1061.26 172.568C1061.08 172.372 1060.86 172.274 1060.59 172.274C1060.32 172.274 1060.09 172.367 1059.9 172.554C1059.73 172.741 1059.64 173.021 1059.64 173.394C1059.64 173.786 1059.73 174.08 1059.9 174.276C1060.09 174.463 1060.32 174.556 1060.59 174.556ZM1060.76 179.666C1061.22 179.666 1061.61 179.582 1061.9 179.414C1062.2 179.255 1062.35 179.055 1062.35 178.812C1062.35 178.597 1062.26 178.453 1062.07 178.378C1061.9 178.303 1061.63 178.266 1061.29 178.266H1060.57C1060.33 178.266 1060.14 178.257 1059.99 178.238C1059.84 178.229 1059.71 178.21 1059.59 178.182C1059.34 178.406 1059.22 178.635 1059.22 178.868C1059.22 179.129 1059.36 179.325 1059.64 179.456C1059.92 179.596 1060.29 179.666 1060.76 179.666ZM1065.44 178V171.056H1067.49V178H1065.44ZM1066.46 170.034C1066.11 170.034 1065.83 169.936 1065.6 169.74C1065.38 169.535 1065.27 169.273 1065.27 168.956C1065.27 168.639 1065.38 168.382 1065.6 168.186C1065.83 167.99 1066.11 167.892 1066.46 167.892C1066.81 167.892 1067.1 167.99 1067.31 168.186C1067.54 168.382 1067.65 168.639 1067.65 168.956C1067.65 169.273 1067.54 169.535 1067.31 169.74C1067.1 169.936 1066.81 170.034 1066.46 170.034ZM1069.3 178V171.056H1070.98L1071.12 171.938H1071.18C1071.48 171.658 1071.81 171.415 1072.16 171.21C1072.52 170.995 1072.93 170.888 1073.41 170.888C1074.16 170.888 1074.71 171.135 1075.04 171.63C1075.39 172.125 1075.56 172.811 1075.56 173.688V178H1073.5V173.954C1073.5 173.45 1073.43 173.105 1073.29 172.918C1073.16 172.731 1072.95 172.638 1072.65 172.638C1072.39 172.638 1072.17 172.699 1071.98 172.82C1071.79 172.932 1071.59 173.095 1071.36 173.31V178H1069.3ZM1079.79 180.954C1079.38 180.954 1079 180.917 1078.65 180.842C1078.3 180.777 1077.99 180.674 1077.72 180.534C1077.46 180.394 1077.26 180.212 1077.11 179.988C1076.96 179.764 1076.88 179.498 1076.88 179.19C1076.88 178.63 1077.21 178.163 1077.88 177.79V177.734C1077.69 177.613 1077.54 177.459 1077.41 177.272C1077.29 177.085 1077.23 176.847 1077.23 176.558C1077.23 176.306 1077.31 176.068 1077.46 175.844C1077.61 175.611 1077.79 175.415 1078.02 175.256V175.2C1077.77 175.032 1077.55 174.794 1077.36 174.486C1077.17 174.169 1077.08 173.805 1077.08 173.394C1077.08 172.974 1077.16 172.61 1077.32 172.302C1077.47 171.985 1077.68 171.723 1077.95 171.518C1078.22 171.303 1078.52 171.145 1078.87 171.042C1079.22 170.939 1079.57 170.888 1079.95 170.888C1080.36 170.888 1080.72 170.944 1081.03 171.056H1083.56V172.554H1082.45C1082.52 172.657 1082.57 172.787 1082.61 172.946C1082.65 173.105 1082.68 173.277 1082.68 173.464C1082.68 173.865 1082.61 174.215 1082.47 174.514C1082.33 174.803 1082.13 175.046 1081.88 175.242C1081.64 175.429 1081.35 175.569 1081.01 175.662C1080.69 175.755 1080.33 175.802 1079.95 175.802C1079.68 175.802 1079.4 175.755 1079.11 175.662C1079.01 175.737 1078.95 175.811 1078.91 175.886C1078.87 175.961 1078.86 176.059 1078.86 176.18C1078.86 176.357 1078.93 176.488 1079.08 176.572C1079.24 176.656 1079.51 176.698 1079.91 176.698H1081.03C1081.88 176.698 1082.54 176.838 1082.99 177.118C1083.44 177.389 1083.67 177.837 1083.67 178.462C1083.67 178.826 1083.58 179.157 1083.39 179.456C1083.21 179.764 1082.96 180.025 1082.62 180.24C1082.29 180.464 1081.88 180.637 1081.4 180.758C1080.93 180.889 1080.39 180.954 1079.79 180.954ZM1079.95 174.556C1080.22 174.556 1080.44 174.463 1080.62 174.276C1080.81 174.08 1080.9 173.786 1080.9 173.394C1080.9 173.03 1080.81 172.755 1080.62 172.568C1080.44 172.372 1080.22 172.274 1079.95 172.274C1079.68 172.274 1079.45 172.367 1079.26 172.554C1079.08 172.741 1079 173.021 1079 173.394C1079 173.786 1079.08 174.08 1079.26 174.276C1079.45 174.463 1079.68 174.556 1079.95 174.556ZM1080.12 179.666C1080.58 179.666 1080.97 179.582 1081.26 179.414C1081.56 179.255 1081.71 179.055 1081.71 178.812C1081.71 178.597 1081.62 178.453 1081.43 178.378C1081.25 178.303 1080.99 178.266 1080.65 178.266H1079.93C1079.69 178.266 1079.5 178.257 1079.35 178.238C1079.2 178.229 1079.07 178.21 1078.95 178.182C1078.7 178.406 1078.58 178.635 1078.58 178.868C1078.58 179.129 1078.72 179.325 1079 179.456C1079.28 179.596 1079.65 179.666 1080.12 179.666Z" fill="black"/>
<g filter="url(#filter12_d)">
<rect x="826" y="156" width="125" height="50" rx="7" fill="black"/>
<rect x="827" y="157" width="123" height="48" rx="6" stroke="black" stroke-width="2" stroke-miterlimit="16" stroke-linecap="round" stroke-linejoin="round"/>
</g>
<g filter="url(#filter13_d)">
<rect x="834" y="150" width="125" height="50" rx="7" fill="white"/>
<rect x="835" y="151" width="123" height="48" rx="6" stroke="black" stroke-width="2" stroke-miterlimit="16" stroke-linecap="round" stroke-linejoin="round"/>
</g>
<path d="M871.91 180V173.056H873.968V180H871.91ZM872.932 172.034C872.587 172.034 872.302 171.936 872.078 171.74C871.854 171.535 871.742 171.273 871.742 170.956C871.742 170.639 871.854 170.382 872.078 170.186C872.302 169.99 872.587 169.892 872.932 169.892C873.287 169.892 873.571 169.99 873.786 170.186C874.01 170.382 874.122 170.639 874.122 170.956C874.122 171.273 874.01 171.535 873.786 171.74C873.571 171.936 873.287 172.034 872.932 172.034ZM878.257 180.168C877.828 180.168 877.436 180.084 877.081 179.916C876.736 179.748 876.437 179.51 876.185 179.202C875.942 178.885 875.751 178.502 875.611 178.054C875.48 177.606 875.415 177.097 875.415 176.528C875.415 175.959 875.494 175.45 875.653 175.002C875.821 174.554 876.036 174.176 876.297 173.868C876.568 173.551 876.876 173.308 877.221 173.14C877.576 172.972 877.935 172.888 878.299 172.888C878.691 172.888 879.013 172.953 879.265 173.084C879.517 173.215 879.764 173.392 880.007 173.616L879.923 172.552V170.186H881.981V180H880.301L880.161 179.314H880.105C879.862 179.557 879.578 179.762 879.251 179.93C878.924 180.089 878.593 180.168 878.257 180.168ZM878.789 178.488C879.013 178.488 879.214 178.441 879.391 178.348C879.578 178.255 879.755 178.091 879.923 177.858V175.016C879.736 174.848 879.545 174.731 879.349 174.666C879.153 174.601 878.962 174.568 878.775 174.568C878.448 174.568 878.159 174.727 877.907 175.044C877.655 175.352 877.529 175.837 877.529 176.5C877.529 177.191 877.636 177.695 877.851 178.012C878.075 178.329 878.388 178.488 878.789 178.488ZM886.913 180.168C886.418 180.168 885.956 180.089 885.527 179.93C885.097 179.762 884.724 179.524 884.407 179.216C884.089 178.899 883.842 178.516 883.665 178.068C883.487 177.62 883.399 177.107 883.399 176.528C883.399 175.968 883.492 175.464 883.679 175.016C883.865 174.559 884.108 174.176 884.407 173.868C884.715 173.551 885.065 173.308 885.457 173.14C885.849 172.972 886.255 172.888 886.675 172.888C887.169 172.888 887.599 172.972 887.963 173.14C888.336 173.308 888.644 173.541 888.887 173.84C889.139 174.139 889.325 174.493 889.447 174.904C889.568 175.305 889.629 175.744 889.629 176.22C889.629 176.407 889.619 176.584 889.601 176.752C889.582 176.92 889.563 177.046 889.545 177.13H885.387C885.48 177.634 885.685 178.007 886.003 178.25C886.329 178.483 886.726 178.6 887.193 178.6C887.687 178.6 888.187 178.446 888.691 178.138L889.377 179.384C889.022 179.627 888.625 179.818 888.187 179.958C887.757 180.098 887.333 180.168 886.913 180.168ZM885.373 175.772H887.879C887.879 175.38 887.79 175.063 887.613 174.82C887.435 174.577 887.137 174.456 886.717 174.456C886.39 174.456 886.101 174.563 885.849 174.778C885.606 174.993 885.447 175.324 885.373 175.772ZM891.051 180V173.056H892.731L892.871 173.938H892.927C893.225 173.658 893.552 173.415 893.907 173.21C894.261 172.995 894.677 172.888 895.153 172.888C895.909 172.888 896.455 173.135 896.791 173.63C897.136 174.125 897.309 174.811 897.309 175.688V180H895.251V175.954C895.251 175.45 895.181 175.105 895.041 174.918C894.91 174.731 894.695 174.638 894.397 174.638C894.135 174.638 893.911 174.699 893.725 174.82C893.538 174.932 893.333 175.095 893.109 175.31V180H891.051ZM901.736 180.168C901.307 180.168 900.938 180.103 900.63 179.972C900.332 179.841 900.084 179.659 899.888 179.426C899.702 179.193 899.562 178.913 899.468 178.586C899.384 178.25 899.342 177.881 899.342 177.48V174.666H898.39V173.14L899.454 173.056L899.692 171.208H901.4V173.056H903.066V174.666H901.4V177.452C901.4 177.844 901.48 178.129 901.638 178.306C901.806 178.474 902.026 178.558 902.296 178.558C902.408 178.558 902.52 178.544 902.632 178.516C902.754 178.488 902.861 178.455 902.954 178.418L903.276 179.916C903.09 179.972 902.87 180.028 902.618 180.084C902.366 180.14 902.072 180.168 901.736 180.168ZM904.422 180V173.056H906.48V180H904.422ZM905.444 172.034C905.098 172.034 904.814 171.936 904.59 171.74C904.366 171.535 904.254 171.273 904.254 170.956C904.254 170.639 904.366 170.382 904.59 170.186C904.814 169.99 905.098 169.892 905.444 169.892C905.798 169.892 906.083 169.99 906.298 170.186C906.522 170.382 906.634 170.639 906.634 170.956C906.634 171.273 906.522 171.535 906.298 171.74C906.083 171.936 905.798 172.034 905.444 172.034ZM910.965 180.168C910.536 180.168 910.167 180.103 909.859 179.972C909.56 179.841 909.313 179.659 909.117 179.426C908.93 179.193 908.79 178.913 908.697 178.586C908.613 178.25 908.571 177.881 908.571 177.48V174.666H907.619V173.14L908.683 173.056L908.921 171.208H910.629V173.056H912.295V174.666H910.629V177.452C910.629 177.844 910.708 178.129 910.867 178.306C911.035 178.474 911.254 178.558 911.525 178.558C911.637 178.558 911.749 178.544 911.861 178.516C911.982 178.488 912.09 178.455 912.183 178.418L912.505 179.916C912.318 179.972 912.099 180.028 911.847 180.084C911.595 180.14 911.301 180.168 910.965 180.168ZM914.42 182.716C914.206 182.716 914.024 182.702 913.874 182.674C913.725 182.655 913.58 182.623 913.44 182.576L913.804 181.008C913.87 181.027 913.944 181.045 914.028 181.064C914.112 181.083 914.192 181.092 914.266 181.092C914.612 181.092 914.878 181.008 915.064 180.84C915.251 180.672 915.391 180.453 915.484 180.182L915.582 179.818L912.908 173.056H914.98L915.974 176.038C916.077 176.355 916.17 176.677 916.254 177.004C916.338 177.331 916.427 177.667 916.52 178.012H916.576C916.651 177.685 916.726 177.359 916.8 177.032C916.884 176.696 916.968 176.365 917.052 176.038L917.892 173.056H919.866L917.458 180.07C917.29 180.509 917.113 180.891 916.926 181.218C916.749 181.554 916.539 181.829 916.296 182.044C916.063 182.268 915.792 182.436 915.484 182.548C915.186 182.66 914.831 182.716 914.42 182.716Z" fill="black"/>
<line x1="639.5" y1="47" x2="639.5" y2="231" stroke="black" stroke-dasharray="2 2"/>
<g filter="url(#filter14_d)">
<line x1="826.049" y1="130" x2="744.049" y2="131" stroke="#EAD413" stroke-width="8"/>
</g>
<g filter="url(#filter15_d)">
<line x1="1050" y1="223" x2="1050" y2="205" stroke="#EAD413" stroke-width="8"/>
</g>
<g filter="url(#filter16_d)">
<line x1="1054" y1="24" x2="744" y2="24" stroke="#EAD413" stroke-width="8"/>
</g>
<g filter="url(#filter17_d)">
<line x1="1054" y1="221" x2="741" y2="221" stroke="#EAD413" stroke-width="8"/>
</g>
<line x1="983" y1="177" x2="959" y2="177" stroke="#EAD413" stroke-width="8"/>
<g filter="url(#filter18_d)">
<line x1="1050" y1="109" x2="1050" y2="149" stroke="#EAD413" stroke-width="8"/>
</g>
<g filter="url(#filter19_d)">
<line x1="908" y1="20" x2="908" y2="59" stroke="#EAD413" stroke-width="8"/>
</g>
<g filter="url(#filter20_d)">
<line x1="1050" y1="20" x2="1050" y2="59" stroke="#EAD413" stroke-width="8"/>
</g>
<g filter="url(#filter21_d)">
<line x1="745" y1="127" x2="745" y2="150" stroke="#EAD413" stroke-width="8"/>
</g>
<g filter="url(#filter22_d)">
<line x1="745" y1="202" x2="745" y2="225" stroke="#EAD413" stroke-width="8"/>
</g>
<g filter="url(#filter23_d)">
<line x1="820.999" y1="22.9266" x2="822.999" y2="131.927" stroke="#EAD413" stroke-width="8"/>
</g>
<g filter="url(#filter24_d)">
<line x1="748" y1="28" x2="748" y2="59" stroke="#EAD413" stroke-width="8"/>
</g>
<defs>
<filter id="filter0_d" x="979" y="65" width="133" height="58" filterUnits="userSpaceOnUse" color-interpolation-filters="sRGB">
<feFlood flood-opacity="0" result="BackgroundImageFix"/>
<feColorMatrix in="SourceAlpha" type="matrix" values="0 0 0 0 0 0 0 0 0 0 0 0 0 0 0 0 0 0 127 0"/>
<feOffset dy="4"/>
<feGaussianBlur stdDeviation="2"/>
<feColorMatrix type="matrix" values="0 0 0 0 0 0 0 0 0 0 0 0 0 0 0 0 0 0 0.39 0"/>
<feBlend mode="normal" in2="BackgroundImageFix" result="effect1_dropShadow"/>
<feBlend mode="normal" in="SourceGraphic" in2="effect1_dropShadow" result="shape"/>
</filter>
<filter id="filter1_d" x="987" y="59" width="133" height="58" filterUnits="userSpaceOnUse" color-interpolation-filters="sRGB">
<feFlood flood-opacity="0" result="BackgroundImageFix"/>
<feColorMatrix in="SourceAlpha" type="matrix" values="0 0 0 0 0 0 0 0 0 0 0 0 0 0 0 0 0 0 127 0"/>
<feOffset dy="4"/>
<feGaussianBlur stdDeviation="2"/>
<feColorMatrix type="matrix" values="0 0 0 0 0 0 0 0 0 0 0 0 0 0 0 0 0 0 0.39 0"/>
<feBlend mode="normal" in2="BackgroundImageFix" result="effect1_dropShadow"/>
<feBlend mode="normal" in="SourceGraphic" in2="effect1_dropShadow" result="shape"/>
</filter>
<filter id="filter2_d" x="670" y="65" width="133" height="58" filterUnits="userSpaceOnUse" color-interpolation-filters="sRGB">
<feFlood flood-opacity="0" result="BackgroundImageFix"/>
<feColorMatrix in="SourceAlpha" type="matrix" values="0 0 0 0 0 0 0 0 0 0 0 0 0 0 0 0 0 0 127 0"/>
<feOffset dy="4"/>
<feGaussianBlur stdDeviation="2"/>
<feColorMatrix type="matrix" values="0 0 0 0 0 0 0 0 0 0 0 0 0 0 0 0 0 0 0.39 0"/>
<feBlend mode="normal" in2="BackgroundImageFix" result="effect1_dropShadow"/>
<feBlend mode="normal" in="SourceGraphic" in2="effect1_dropShadow" result="shape"/>
</filter>
<filter id="filter3_d" x="678" y="59" width="133" height="58" filterUnits="userSpaceOnUse" color-interpolation-filters="sRGB">
<feFlood flood-opacity="0" result="BackgroundImageFix"/>
<feColorMatrix in="SourceAlpha" type="matrix" values="0 0 0 0 0 0 0 0 0 0 0 0 0 0 0 0 0 0 127 0"/>
<feOffset dy="4"/>
<feGaussianBlur stdDeviation="2"/>
<feColorMatrix type="matrix" values="0 0 0 0 0 0 0 0 0 0 0 0 0 0 0 0 0 0 0.39 0"/>
<feBlend mode="normal" in2="BackgroundImageFix" result="effect1_dropShadow"/>
<feBlend mode="normal" in="SourceGraphic" in2="effect1_dropShadow" result="shape"/>
</filter>
<filter id="filter4_d" x="670" y="155" width="133" height="58" filterUnits="userSpaceOnUse" color-interpolation-filters="sRGB">
<feFlood flood-opacity="0" result="BackgroundImageFix"/>
<feColorMatrix in="SourceAlpha" type="matrix" values="0 0 0 0 0 0 0 0 0 0 0 0 0 0 0 0 0 0 127 0"/>
<feOffset dy="4"/>
<feGaussianBlur stdDeviation="2"/>
<feColorMatrix type="matrix" values="0 0 0 0 0 0 0 0 0 0 0 0 0 0 0 0 0 0 0.39 0"/>
<feBlend mode="normal" in2="BackgroundImageFix" result="effect1_dropShadow"/>
<feBlend mode="normal" in="SourceGraphic" in2="effect1_dropShadow" result="shape"/>
</filter>
<filter id="filter5_d" x="678" y="149" width="133" height="58" filterUnits="userSpaceOnUse" color-interpolation-filters="sRGB">
<feFlood flood-opacity="0" result="BackgroundImageFix"/>
<feColorMatrix in="SourceAlpha" type="matrix" values="0 0 0 0 0 0 0 0 0 0 0 0 0 0 0 0 0 0 127 0"/>
<feOffset dy="4"/>
<feGaussianBlur stdDeviation="2"/>
<feColorMatrix type="matrix" values="0 0 0 0 0 0 0 0 0 0 0 0 0 0 0 0 0 0 0.39 0"/>
<feBlend mode="normal" in2="BackgroundImageFix" result="effect1_dropShadow"/>
<feBlend mode="normal" in="SourceGraphic" in2="effect1_dropShadow" result="shape"/>
</filter>
<filter id="filter6_d" x="830" y="65" width="133" height="58" filterUnits="userSpaceOnUse" color-interpolation-filters="sRGB">
<feFlood flood-opacity="0" result="BackgroundImageFix"/>
<feColorMatrix in="SourceAlpha" type="matrix" values="0 0 0 0 0 0 0 0 0 0 0 0 0 0 0 0 0 0 127 0"/>
<feOffset dy="4"/>
<feGaussianBlur stdDeviation="2"/>
<feColorMatrix type="matrix" values="0 0 0 0 0 0 0 0 0 0 0 0 0 0 0 0 0 0 0.39 0"/>
<feBlend mode="normal" in2="BackgroundImageFix" result="effect1_dropShadow"/>
<feBlend mode="normal" in="SourceGraphic" in2="effect1_dropShadow" result="shape"/>
</filter>
<filter id="filter7_d" x="838" y="59" width="133" height="58" filterUnits="userSpaceOnUse" color-interpolation-filters="sRGB">
<feFlood flood-opacity="0" result="BackgroundImageFix"/>
<feColorMatrix in="SourceAlpha" type="matrix" values="0 0 0 0 0 0 0 0 0 0 0 0 0 0 0 0 0 0 127 0"/>
<feOffset dy="4"/>
<feGaussianBlur stdDeviation="2"/>
<feColorMatrix type="matrix" values="0 0 0 0 0 0 0 0 0 0 0 0 0 0 0 0 0 0 0.39 0"/>
<feBlend mode="normal" in2="BackgroundImageFix" result="effect1_dropShadow"/>
<feBlend mode="normal" in="SourceGraphic" in2="effect1_dropShadow" result="shape"/>
</filter>
<filter id="filter8_d" x="467" y="115" width="133" height="58" filterUnits="userSpaceOnUse" color-interpolation-filters="sRGB">
<feFlood flood-opacity="0" result="BackgroundImageFix"/>
<feColorMatrix in="SourceAlpha" type="matrix" values="0 0 0 0 0 0 0 0 0 0 0 0 0 0 0 0 0 0 127 0"/>
<feOffset dy="4"/>
<feGaussianBlur stdDeviation="2"/>
<feColorMatrix type="matrix" values="0 0 0 0 0 0 0 0 0 0 0 0 0 0 0 0 0 0 0.39 0"/>
<feBlend mode="normal" in2="BackgroundImageFix" result="effect1_dropShadow"/>
<feBlend mode="normal" in="SourceGraphic" in2="effect1_dropShadow" result="shape"/>
</filter>
<filter id="filter9_d" x="475" y="109" width="133" height="58" filterUnits="userSpaceOnUse" color-interpolation-filters="sRGB">
<feFlood flood-opacity="0" result="BackgroundImageFix"/>
<feColorMatrix in="SourceAlpha" type="matrix" values="0 0 0 0 0 0 0 0 0 0 0 0 0 0 0 0 0 0 127 0"/>
<feOffset dy="4"/>
<feGaussianBlur stdDeviation="2"/>
<feColorMatrix type="matrix" values="0 0 0 0 0 0 0 0 0 0 0 0 0 0 0 0 0 0 0.39 0"/>
<feBlend mode="normal" in2="BackgroundImageFix" result="effect1_dropShadow"/>
<feBlend mode="normal" in="SourceGraphic" in2="effect1_dropShadow" result="shape"/>
</filter>
<filter id="filter10_d" x="979" y="155" width="133" height="58" filterUnits="userSpaceOnUse" color-interpolation-filters="sRGB">
<feFlood flood-opacity="0" result="BackgroundImageFix"/>
<feColorMatrix in="SourceAlpha" type="matrix" values="0 0 0 0 0 0 0 0 0 0 0 0 0 0 0 0 0 0 127 0"/>
<feOffset dy="4"/>
<feGaussianBlur stdDeviation="2"/>
<feColorMatrix type="matrix" values="0 0 0 0 0 0 0 0 0 0 0 0 0 0 0 0 0 0 0.39 0"/>
<feBlend mode="normal" in2="BackgroundImageFix" result="effect1_dropShadow"/>
<feBlend mode="normal" in="SourceGraphic" in2="effect1_dropShadow" result="shape"/>
</filter>
<filter id="filter11_d" x="987" y="149" width="133" height="58" filterUnits="userSpaceOnUse" color-interpolation-filters="sRGB">
<feFlood flood-opacity="0" result="BackgroundImageFix"/>
<feColorMatrix in="SourceAlpha" type="matrix" values="0 0 0 0 0 0 0 0 0 0 0 0 0 0 0 0 0 0 127 0"/>
<feOffset dy="4"/>
<feGaussianBlur stdDeviation="2"/>
<feColorMatrix type="matrix" values="0 0 0 0 0 0 0 0 0 0 0 0 0 0 0 0 0 0 0.39 0"/>
<feBlend mode="normal" in2="BackgroundImageFix" result="effect1_dropShadow"/>
<feBlend mode="normal" in="SourceGraphic" in2="effect1_dropShadow" result="shape"/>
</filter>
<filter id="filter12_d" x="822" y="156" width="133" height="58" filterUnits="userSpaceOnUse" color-interpolation-filters="sRGB">
<feFlood flood-opacity="0" result="BackgroundImageFix"/>
<feColorMatrix in="SourceAlpha" type="matrix" values="0 0 0 0 0 0 0 0 0 0 0 0 0 0 0 0 0 0 127 0"/>
<feOffset dy="4"/>
<feGaussianBlur stdDeviation="2"/>
<feColorMatrix type="matrix" values="0 0 0 0 0 0 0 0 0 0 0 0 0 0 0 0 0 0 0.39 0"/>
<feBlend mode="normal" in2="BackgroundImageFix" result="effect1_dropShadow"/>
<feBlend mode="normal" in="SourceGraphic" in2="effect1_dropShadow" result="shape"/>
</filter>
<filter id="filter13_d" x="830" y="150" width="133" height="58" filterUnits="userSpaceOnUse" color-interpolation-filters="sRGB">
<feFlood flood-opacity="0" result="BackgroundImageFix"/>
<feColorMatrix in="SourceAlpha" type="matrix" values="0 0 0 0 0 0 0 0 0 0 0 0 0 0 0 0 0 0 127 0"/>
<feOffset dy="4"/>
<feGaussianBlur stdDeviation="2"/>
<feColorMatrix type="matrix" values="0 0 0 0 0 0 0 0 0 0 0 0 0 0 0 0 0 0 0.39 0"/>
<feBlend mode="normal" in2="BackgroundImageFix" result="effect1_dropShadow"/>
<feBlend mode="normal" in="SourceGraphic" in2="effect1_dropShadow" result="shape"/>
</filter>
<filter id="filter14_d" x="740" y="126" width="90.0976" height="16.9994" filterUnits="userSpaceOnUse" color-interpolation-filters="sRGB">
<feFlood flood-opacity="0" result="BackgroundImageFix"/>
<feColorMatrix in="SourceAlpha" type="matrix" values="0 0 0 0 0 0 0 0 0 0 0 0 0 0 0 0 0 0 127 0"/>
<feOffset dy="4"/>
<feGaussianBlur stdDeviation="2"/>
<feColorMatrix type="matrix" values="0 0 0 0 0 0 0 0 0 0 0 0 0 0 0 0 0 0 0.25 0"/>
<feBlend mode="normal" in2="BackgroundImageFix" result="effect1_dropShadow"/>
<feBlend mode="normal" in="SourceGraphic" in2="effect1_dropShadow" result="shape"/>
</filter>
<filter id="filter15_d" x="1042" y="205" width="16" height="26" filterUnits="userSpaceOnUse" color-interpolation-filters="sRGB">
<feFlood flood-opacity="0" result="BackgroundImageFix"/>
<feColorMatrix in="SourceAlpha" type="matrix" values="0 0 0 0 0 0 0 0 0 0 0 0 0 0 0 0 0 0 127 0"/>
<feOffset dy="4"/>
<feGaussianBlur stdDeviation="2"/>
<feColorMatrix type="matrix" values="0 0 0 0 0 0 0 0 0 0 0 0 0 0 0 0 0 0 0.25 0"/>
<feBlend mode="normal" in2="BackgroundImageFix" result="effect1_dropShadow"/>
<feBlend mode="normal" in="SourceGraphic" in2="effect1_dropShadow" result="shape"/>
</filter>
<filter id="filter16_d" x="740" y="20" width="318" height="16" filterUnits="userSpaceOnUse" color-interpolation-filters="sRGB">
<feFlood flood-opacity="0" result="BackgroundImageFix"/>
<feColorMatrix in="SourceAlpha" type="matrix" values="0 0 0 0 0 0 0 0 0 0 0 0 0 0 0 0 0 0 127 0"/>
<feOffset dy="4"/>
<feGaussianBlur stdDeviation="2"/>
<feColorMatrix type="matrix" values="0 0 0 0 0 0 0 0 0 0 0 0 0 0 0 0 0 0 0.25 0"/>
<feBlend mode="normal" in2="BackgroundImageFix" result="effect1_dropShadow"/>
<feBlend mode="normal" in="SourceGraphic" in2="effect1_dropShadow" result="shape"/>
</filter>
<filter id="filter17_d" x="737" y="217" width="321" height="16" filterUnits="userSpaceOnUse" color-interpolation-filters="sRGB">
<feFlood flood-opacity="0" result="BackgroundImageFix"/>
<feColorMatrix in="SourceAlpha" type="matrix" values="0 0 0 0 0 0 0 0 0 0 0 0 0 0 0 0 0 0 127 0"/>
<feOffset dy="4"/>
<feGaussianBlur stdDeviation="2"/>
<feColorMatrix type="matrix" values="0 0 0 0 0 0 0 0 0 0 0 0 0 0 0 0 0 0 0.25 0"/>
<feBlend mode="normal" in2="BackgroundImageFix" result="effect1_dropShadow"/>
<feBlend mode="normal" in="SourceGraphic" in2="effect1_dropShadow" result="shape"/>
</filter>
<filter id="filter18_d" x="1042" y="109" width="16" height="48" filterUnits="userSpaceOnUse" color-interpolation-filters="sRGB">
<feFlood flood-opacity="0" result="BackgroundImageFix"/>
<feColorMatrix in="SourceAlpha" type="matrix" values="0 0 0 0 0 0 0 0 0 0 0 0 0 0 0 0 0 0 127 0"/>
<feOffset dy="4"/>
<feGaussianBlur stdDeviation="2"/>
<feColorMatrix type="matrix" values="0 0 0 0 0 0 0 0 0 0 0 0 0 0 0 0 0 0 0.25 0"/>
<feBlend mode="normal" in2="BackgroundImageFix" result="effect1_dropShadow"/>
<feBlend mode="normal" in="SourceGraphic" in2="effect1_dropShadow" result="shape"/>
</filter>
<filter id="filter19_d" x="900" y="20" width="16" height="47" filterUnits="userSpaceOnUse" color-interpolation-filters="sRGB">
<feFlood flood-opacity="0" result="BackgroundImageFix"/>
<feColorMatrix in="SourceAlpha" type="matrix" values="0 0 0 0 0 0 0 0 0 0 0 0 0 0 0 0 0 0 127 0"/>
<feOffset dy="4"/>
<feGaussianBlur stdDeviation="2"/>
<feColorMatrix type="matrix" values="0 0 0 0 0 0 0 0 0 0 0 0 0 0 0 0 0 0 0.25 0"/>
<feBlend mode="normal" in2="BackgroundImageFix" result="effect1_dropShadow"/>
<feBlend mode="normal" in="SourceGraphic" in2="effect1_dropShadow" result="shape"/>
</filter>
<filter id="filter20_d" x="1042" y="20" width="16" height="47" filterUnits="userSpaceOnUse" color-interpolation-filters="sRGB">
<feFlood flood-opacity="0" result="BackgroundImageFix"/>
<feColorMatrix in="SourceAlpha" type="matrix" values="0 0 0 0 0 0 0 0 0 0 0 0 0 0 0 0 0 0 127 0"/>
<feOffset dy="4"/>
<feGaussianBlur stdDeviation="2"/>
<feColorMatrix type="matrix" values="0 0 0 0 0 0 0 0 0 0 0 0 0 0 0 0 0 0 0.25 0"/>
<feBlend mode="normal" in2="BackgroundImageFix" result="effect1_dropShadow"/>
<feBlend mode="normal" in="SourceGraphic" in2="effect1_dropShadow" result="shape"/>
</filter>
<filter id="filter21_d" x="737" y="127" width="16" height="31" filterUnits="userSpaceOnUse" color-interpolation-filters="sRGB">
<feFlood flood-opacity="0" result="BackgroundImageFix"/>
<feColorMatrix in="SourceAlpha" type="matrix" values="0 0 0 0 0 0 0 0 0 0 0 0 0 0 0 0 0 0 127 0"/>
<feOffset dy="4"/>
<feGaussianBlur stdDeviation="2"/>
<feColorMatrix type="matrix" values="0 0 0 0 0 0 0 0 0 0 0 0 0 0 0 0 0 0 0.25 0"/>
<feBlend mode="normal" in2="BackgroundImageFix" result="effect1_dropShadow"/>
<feBlend mode="normal" in="SourceGraphic" in2="effect1_dropShadow" result="shape"/>
</filter>
<filter id="filter22_d" x="737" y="202" width="16" height="31" filterUnits="userSpaceOnUse" color-interpolation-filters="sRGB">
<feFlood flood-opacity="0" result="BackgroundImageFix"/>
<feColorMatrix in="SourceAlpha" type="matrix" values="0 0 0 0 0 0 0 0 0 0 0 0 0 0 0 0 0 0 127 0"/>
<feOffset dy="4"/>
<feGaussianBlur stdDeviation="2"/>
<feColorMatrix type="matrix" values="0 0 0 0 0 0 0 0 0 0 0 0 0 0 0 0 0 0 0.25 0"/>
<feBlend mode="normal" in2="BackgroundImageFix" result="effect1_dropShadow"/>
<feBlend mode="normal" in="SourceGraphic" in2="effect1_dropShadow" result="shape"/>
</filter>
<filter id="filter23_d" x="813" y="22.8532" width="17.9987" height="117.147" filterUnits="userSpaceOnUse" color-interpolation-filters="sRGB">
<feFlood flood-opacity="0" result="BackgroundImageFix"/>
<feColorMatrix in="SourceAlpha" type="matrix" values="0 0 0 0 0 0 0 0 0 0 0 0 0 0 0 0 0 0 127 0"/>
<feOffset dy="4"/>
<feGaussianBlur stdDeviation="2"/>
<feColorMatrix type="matrix" values="0 0 0 0 0 0 0 0 0 0 0 0 0 0 0 0 0 0 0.25 0"/>
<feBlend mode="normal" in2="BackgroundImageFix" result="effect1_dropShadow"/>
<feBlend mode="normal" in="SourceGraphic" in2="effect1_dropShadow" result="shape"/>
</filter>
<filter id="filter24_d" x="740" y="28" width="16" height="39" filterUnits="userSpaceOnUse" color-interpolation-filters="sRGB">
<feFlood flood-opacity="0" result="BackgroundImageFix"/>
<feColorMatrix in="SourceAlpha" type="matrix" values="0 0 0 0 0 0 0 0 0 0 0 0 0 0 0 0 0 0 127 0"/>
<feOffset dy="4"/>
<feGaussianBlur stdDeviation="2"/>
<feColorMatrix type="matrix" values="0 0 0 0 0 0 0 0 0 0 0 0 0 0 0 0 0 0 0.25 0"/>
<feBlend mode="normal" in2="BackgroundImageFix" result="effect1_dropShadow"/>
<feBlend mode="normal" in="SourceGraphic" in2="effect1_dropShadow" result="shape"/>
</filter>
</defs>
</svg>
