<svg width="1120" height="279" viewBox="0 0 1120 279" fill="none" xmlns="http://www.w3.org/2000/svg">
<rect width="419" height="35" transform="translate(1)" fill="white"/>
<path fill-rule="evenodd" clip-rule="evenodd" d="M26.5 25C30.6421 25 34 21.6421 34 17.5C34 13.3579 30.6421 10 26.5 10C22.3579 10 19 13.3579 19 17.5C19 21.6421 22.3579 25 26.5 25Z" fill="black"/>
<path fill-rule="evenodd" clip-rule="evenodd" d="M49.5 25C53.6421 25 57 21.6421 57 17.5C57 13.3579 53.6421 10 49.5 10C45.3579 10 42 13.3579 42 17.5C42 21.6421 45.3579 25 49.5 25Z" fill="black"/>
<path fill-rule="evenodd" clip-rule="evenodd" d="M72.5 25C76.6421 25 80 21.6421 80 17.5C80 13.3579 76.6421 10 72.5 10C68.3579 10 65 13.3579 65 17.5C65 21.6421 68.3579 25 72.5 25Z" fill="black"/>
<path d="M1 34.5H0.5V35V278V278.5H1H420H420.5V278V35V34.5H420H1Z" fill="white" stroke="#EBEBEB"/>
<rect x="147" y="50" width="165" height="40" fill="#C4C4C4"/>
<rect x="147" y="105" width="246" height="99" fill="#C4C4C4"/>
<rect x="20" y="50" width="90" height="95" fill="#C4C4C4"/>
<rect x="305.5" y="232.5" width="86" height="27" stroke="black"/>
<path d="M373.16 76.64V74.24C372.456 74.16 371.712 73.968 370.928 73.664C370.16 73.344 369.496 72.928 368.936 72.416L370.472 70.04C371.08 70.504 371.656 70.856 372.2 71.096C372.76 71.32 373.328 71.432 373.904 71.432C374.576 71.432 375.064 71.296 375.368 71.024C375.688 70.752 375.848 70.336 375.848 69.776C375.848 69.36 375.688 69.008 375.368 68.72C375.064 68.432 374.672 68.16 374.192 67.904C373.728 67.632 373.224 67.368 372.68 67.112C372.136 66.84 371.624 66.52 371.144 66.152C370.68 65.784 370.288 65.352 369.968 64.856C369.664 64.36 369.512 63.752 369.512 63.032C369.512 61.848 369.832 60.872 370.472 60.104C371.128 59.32 372.024 58.816 373.16 58.592V56.12H375.488V58.544C376.256 58.656 376.928 58.888 377.504 59.24C378.08 59.592 378.6 60.016 379.064 60.512L377.288 62.528C376.856 62.128 376.44 61.832 376.04 61.64C375.64 61.432 375.184 61.328 374.672 61.328C374.096 61.328 373.656 61.448 373.352 61.688C373.048 61.928 372.896 62.32 372.896 62.864C372.896 63.248 373.048 63.576 373.352 63.848C373.672 64.104 374.064 64.352 374.528 64.592C375.008 64.832 375.52 65.08 376.064 65.336C376.608 65.592 377.112 65.904 377.576 66.272C378.056 66.64 378.448 67.088 378.752 67.616C379.072 68.128 379.232 68.768 379.232 69.536C379.232 70.688 378.92 71.68 378.296 72.512C377.672 73.328 376.736 73.872 375.488 74.144V76.64H373.16ZM385.84 76.64V74.24C385.136 74.16 384.392 73.968 383.608 73.664C382.84 73.344 382.176 72.928 381.616 72.416L383.152 70.04C383.76 70.504 384.336 70.856 384.88 71.096C385.44 71.32 386.008 71.432 386.584 71.432C387.256 71.432 387.744 71.296 388.048 71.024C388.368 70.752 388.528 70.336 388.528 69.776C388.528 69.36 388.368 69.008 388.048 68.72C387.744 68.432 387.352 68.16 386.872 67.904C386.408 67.632 385.904 67.368 385.36 67.112C384.816 66.84 384.304 66.52 383.824 66.152C383.36 65.784 382.968 65.352 382.648 64.856C382.344 64.36 382.192 63.752 382.192 63.032C382.192 61.848 382.512 60.872 383.152 60.104C383.808 59.32 384.704 58.816 385.84 58.592V56.12H388.168V58.544C388.936 58.656 389.608 58.888 390.184 59.24C390.76 59.592 391.28 60.016 391.744 60.512L389.968 62.528C389.536 62.128 389.12 61.832 388.72 61.64C388.32 61.432 387.864 61.328 387.352 61.328C386.776 61.328 386.336 61.448 386.032 61.688C385.728 61.928 385.576 62.32 385.576 62.864C385.576 63.248 385.728 63.576 386.032 63.848C386.352 64.104 386.744 64.352 387.208 64.592C387.688 64.832 388.2 65.08 388.744 65.336C389.288 65.592 389.792 65.904 390.256 66.272C390.736 66.64 391.128 67.088 391.432 67.616C391.752 68.128 391.912 68.768 391.912 69.536C391.912 70.688 391.6 71.68 390.976 72.512C390.352 73.328 389.416 73.872 388.168 74.144V76.64H385.84Z" fill="black"/>
<path d="M330.188 250.144C329.692 250.144 329.224 250.06 328.784 249.892C328.344 249.716 327.956 249.46 327.62 249.124C327.292 248.788 327.032 248.372 326.84 247.876C326.648 247.372 326.552 246.792 326.552 246.136C326.552 245.488 326.652 244.912 326.852 244.408C327.052 243.896 327.32 243.464 327.656 243.112C327.992 242.76 328.384 242.492 328.832 242.308C329.28 242.124 329.752 242.032 330.248 242.032C330.752 242.032 331.204 242.136 331.604 242.344C332.004 242.544 332.336 242.78 332.6 243.052L331.664 244.18C331.464 243.996 331.252 243.848 331.028 243.736C330.812 243.616 330.564 243.556 330.284 243.556C330.02 243.556 329.768 243.616 329.528 243.736C329.296 243.848 329.092 244.012 328.916 244.228C328.748 244.444 328.612 244.708 328.508 245.02C328.412 245.332 328.364 245.684 328.364 246.076C328.364 246.884 328.536 247.512 328.88 247.96C329.224 248.4 329.684 248.62 330.26 248.62C330.58 248.62 330.864 248.552 331.112 248.416C331.368 248.272 331.592 248.096 331.784 247.888L332.72 248.992C332.064 249.76 331.22 250.144 330.188 250.144ZM333.764 250V241.588H335.528V243.652L335.444 244.72C335.668 244.52 335.928 244.336 336.224 244.168C336.52 243.992 336.872 243.904 337.28 243.904C337.928 243.904 338.396 244.116 338.684 244.54C338.98 244.964 339.128 245.552 339.128 246.304V250H337.364V246.532C337.364 246.1 337.304 245.804 337.184 245.644C337.072 245.484 336.888 245.404 336.632 245.404C336.408 245.404 336.216 245.456 336.056 245.56C335.896 245.656 335.72 245.796 335.528 245.98V250H333.764ZM343.284 250.144C342.86 250.144 342.464 250.076 342.096 249.94C341.728 249.796 341.408 249.592 341.136 249.328C340.864 249.056 340.652 248.728 340.5 248.344C340.348 247.96 340.272 247.52 340.272 247.024C340.272 246.544 340.352 246.112 340.512 245.728C340.672 245.336 340.88 245.008 341.136 244.744C341.4 244.472 341.7 244.264 342.036 244.12C342.372 243.976 342.72 243.904 343.08 243.904C343.504 243.904 343.872 243.976 344.184 244.12C344.504 244.264 344.768 244.464 344.976 244.72C345.192 244.976 345.352 245.28 345.456 245.632C345.56 245.976 345.612 246.352 345.612 246.76C345.612 246.92 345.604 247.072 345.588 247.216C345.572 247.36 345.556 247.468 345.54 247.54H341.976C342.056 247.972 342.232 248.292 342.504 248.5C342.784 248.7 343.124 248.8 343.524 248.8C343.948 248.8 344.376 248.668 344.808 248.404L345.396 249.472C345.092 249.68 344.752 249.844 344.376 249.964C344.008 250.084 343.644 250.144 343.284 250.144ZM341.964 246.376H344.112C344.112 246.04 344.036 245.768 343.884 245.56C343.732 245.352 343.476 245.248 343.116 245.248C342.836 245.248 342.588 245.34 342.372 245.524C342.164 245.708 342.028 245.992 341.964 246.376ZM349.423 250.144C349.007 250.144 348.619 250.076 348.259 249.94C347.907 249.796 347.599 249.592 347.335 249.328C347.071 249.064 346.863 248.74 346.711 248.356C346.559 247.964 346.483 247.52 346.483 247.024C346.483 246.528 346.567 246.088 346.735 245.704C346.903 245.312 347.127 244.984 347.407 244.72C347.695 244.456 348.027 244.256 348.403 244.12C348.779 243.976 349.171 243.904 349.579 243.904C349.947 243.904 350.271 243.964 350.551 244.084C350.839 244.204 351.095 244.356 351.319 244.54L350.491 245.68C350.211 245.448 349.943 245.332 349.687 245.332C349.255 245.332 348.915 245.484 348.667 245.788C348.419 246.092 348.295 246.504 348.295 247.024C348.295 247.544 348.419 247.956 348.667 248.26C348.923 248.564 349.243 248.716 349.627 248.716C349.819 248.716 350.003 248.676 350.179 248.596C350.363 248.508 350.535 248.404 350.695 248.284L351.391 249.436C351.095 249.692 350.775 249.876 350.431 249.988C350.087 250.092 349.751 250.144 349.423 250.144ZM352.432 250V241.588H354.148V246.412H354.196L356.08 244.048H358L355.912 246.496L358.156 250H356.248L354.904 247.684L354.148 248.536V250H352.432ZM361.223 250.144C360.847 250.144 360.483 250.076 360.131 249.94C359.779 249.796 359.467 249.592 359.195 249.328C358.931 249.064 358.719 248.74 358.559 248.356C358.399 247.964 358.319 247.52 358.319 247.024C358.319 246.528 358.399 246.088 358.559 245.704C358.719 245.312 358.931 244.984 359.195 244.72C359.467 244.456 359.779 244.256 360.131 244.12C360.483 243.976 360.847 243.904 361.223 243.904C361.599 243.904 361.959 243.976 362.303 244.12C362.655 244.256 362.963 244.456 363.227 244.72C363.499 244.984 363.715 245.312 363.875 245.704C364.035 246.088 364.115 246.528 364.115 247.024C364.115 247.52 364.035 247.964 363.875 248.356C363.715 248.74 363.499 249.064 363.227 249.328C362.963 249.592 362.655 249.796 362.303 249.94C361.959 250.076 361.599 250.144 361.223 250.144ZM361.223 248.716C361.583 248.716 361.855 248.564 362.039 248.26C362.223 247.956 362.315 247.544 362.315 247.024C362.315 246.504 362.223 246.092 362.039 245.788C361.855 245.484 361.583 245.332 361.223 245.332C360.855 245.332 360.579 245.484 360.395 245.788C360.219 246.092 360.131 246.504 360.131 247.024C360.131 247.544 360.219 247.956 360.395 248.26C360.579 248.564 360.855 248.716 361.223 248.716ZM367.111 250.144C366.463 250.144 365.991 249.932 365.695 249.508C365.407 249.084 365.263 248.496 365.263 247.744V244.048H367.027V247.516C367.027 247.948 367.087 248.244 367.207 248.404C367.327 248.564 367.515 248.644 367.771 248.644C367.995 248.644 368.183 248.592 368.335 248.488C368.487 248.384 368.651 248.216 368.827 247.984V244.048H370.591V250H369.151L369.019 249.172H368.983C368.727 249.476 368.451 249.716 368.155 249.892C367.867 250.06 367.519 250.144 367.111 250.144ZM374.435 250.144C374.067 250.144 373.751 250.088 373.487 249.976C373.231 249.864 373.019 249.708 372.851 249.508C372.691 249.308 372.571 249.068 372.491 248.788C372.419 248.5 372.383 248.184 372.383 247.84V245.428H371.567V244.12L372.479 244.048L372.683 242.464H374.147V244.048H375.575V245.428H374.147V247.816C374.147 248.152 374.215 248.396 374.351 248.548C374.495 248.692 374.683 248.764 374.915 248.764C375.011 248.764 375.107 248.752 375.203 248.728C375.307 248.704 375.399 248.676 375.479 248.644L375.755 249.928C375.595 249.976 375.407 250.024 375.191 250.072C374.975 250.12 374.723 250.144 374.435 250.144Z" fill="black"/>
<g filter="url(#filter0_d)">
<rect x="979" y="64" width="125" height="50" rx="7" fill="black"/>
<rect x="980" y="65" width="123" height="48" rx="6" stroke="black" stroke-width="2" stroke-miterlimit="16" stroke-linecap="round" stroke-linejoin="round"/>
</g>
<g filter="url(#filter1_d)">
<rect x="987" y="58" width="125" height="50" rx="7" fill="white"/>
<rect x="988" y="59" width="123" height="48" rx="6" stroke="black" stroke-width="2" stroke-miterlimit="16" stroke-linecap="round" stroke-linejoin="round"/>
</g>
<path d="M1019.91 89.576V80.056H1021.59L1021.73 80.742H1021.79C1022.06 80.4993 1022.36 80.2987 1022.7 80.14C1023.04 79.972 1023.4 79.888 1023.76 79.888C1024.18 79.888 1024.56 79.972 1024.89 80.14C1025.23 80.308 1025.51 80.546 1025.75 80.854C1025.98 81.162 1026.16 81.5353 1026.28 81.974C1026.41 82.4033 1026.48 82.884 1026.48 83.416C1026.48 84.0133 1026.39 84.5453 1026.22 85.012C1026.07 85.4693 1025.85 85.8613 1025.57 86.188C1025.3 86.5053 1024.98 86.748 1024.63 86.916C1024.28 87.084 1023.92 87.168 1023.55 87.168C1023.25 87.168 1022.96 87.1073 1022.68 86.986C1022.4 86.8553 1022.14 86.6733 1021.9 86.44L1021.97 87.546V89.576H1019.91ZM1023.07 85.488C1023.43 85.488 1023.73 85.3293 1023.98 85.012C1024.24 84.6853 1024.36 84.1627 1024.36 83.444C1024.36 82.1933 1023.96 81.568 1023.16 81.568C1022.76 81.568 1022.36 81.778 1021.97 82.198V85.04C1022.15 85.208 1022.34 85.3247 1022.53 85.39C1022.71 85.4553 1022.9 85.488 1023.07 85.488ZM1029.54 87.168C1029.22 87.168 1028.93 87.112 1028.67 87C1028.42 86.8973 1028.2 86.7527 1028.02 86.566C1027.85 86.37 1027.71 86.146 1027.6 85.894C1027.51 85.642 1027.46 85.3667 1027.46 85.068C1027.46 84.34 1027.77 83.7707 1028.39 83.36C1029 82.9493 1030 82.674 1031.37 82.534C1031.35 82.226 1031.26 81.9833 1031.09 81.806C1030.93 81.6193 1030.66 81.526 1030.28 81.526C1029.98 81.526 1029.68 81.582 1029.38 81.694C1029.09 81.806 1028.78 81.96 1028.44 82.156L1027.7 80.798C1028.15 80.5273 1028.62 80.308 1029.1 80.14C1029.6 79.972 1030.12 79.888 1030.67 79.888C1031.57 79.888 1032.25 80.1447 1032.71 80.658C1033.19 81.162 1033.43 81.9507 1033.43 83.024V87H1031.75L1031.61 86.286H1031.55C1031.25 86.5473 1030.94 86.762 1030.61 86.93C1030.29 87.0887 1029.93 87.168 1029.54 87.168ZM1030.24 85.572C1030.47 85.572 1030.67 85.5207 1030.84 85.418C1031.01 85.3153 1031.18 85.1707 1031.37 84.984V83.766C1030.64 83.8687 1030.14 84.018 1029.86 84.214C1029.58 84.41 1029.44 84.6433 1029.44 84.914C1029.44 85.138 1029.51 85.306 1029.65 85.418C1029.8 85.5207 1029.99 85.572 1030.24 85.572ZM1035.94 89.716C1035.72 89.716 1035.54 89.702 1035.39 89.674C1035.24 89.6553 1035.1 89.6227 1034.96 89.576L1035.32 88.008C1035.39 88.0267 1035.46 88.0453 1035.55 88.064C1035.63 88.0827 1035.71 88.092 1035.78 88.092C1036.13 88.092 1036.4 88.008 1036.58 87.84C1036.77 87.672 1036.91 87.4527 1037 87.182L1037.1 86.818L1034.43 80.056H1036.5L1037.49 83.038C1037.59 83.3553 1037.69 83.6773 1037.77 84.004C1037.86 84.3307 1037.94 84.6667 1038.04 85.012H1038.09C1038.17 84.6853 1038.24 84.3587 1038.32 84.032C1038.4 83.696 1038.49 83.3647 1038.57 83.038L1039.41 80.056H1041.38L1038.98 87.07C1038.81 87.5087 1038.63 87.8913 1038.44 88.218C1038.27 88.554 1038.06 88.8293 1037.81 89.044C1037.58 89.268 1037.31 89.436 1037 89.548C1036.7 89.66 1036.35 89.716 1035.94 89.716ZM1042.47 87V80.056H1044.15L1044.29 80.952H1044.34C1044.63 80.6627 1044.94 80.4153 1045.27 80.21C1045.6 79.9953 1045.99 79.888 1046.44 79.888C1046.94 79.888 1047.34 79.9907 1047.63 80.196C1047.94 80.392 1048.19 80.6767 1048.36 81.05C1048.67 80.7327 1048.99 80.462 1049.33 80.238C1049.67 80.0047 1050.08 79.888 1050.55 79.888C1051.29 79.888 1051.84 80.14 1052.18 80.644C1052.54 81.1387 1052.72 81.82 1052.72 82.688V87H1050.66V82.954C1050.66 82.45 1050.59 82.1047 1050.45 81.918C1050.32 81.7313 1050.1 81.638 1049.8 81.638C1049.46 81.638 1049.06 81.862 1048.61 82.31V87H1046.56V82.954C1046.56 82.45 1046.49 82.1047 1046.35 81.918C1046.22 81.7313 1046 81.638 1045.7 81.638C1045.35 81.638 1044.96 81.862 1044.53 82.31V87H1042.47ZM1057.58 87.168C1057.09 87.168 1056.62 87.0887 1056.19 86.93C1055.77 86.762 1055.39 86.524 1055.07 86.216C1054.76 85.8987 1054.51 85.516 1054.33 85.068C1054.16 84.62 1054.07 84.1067 1054.07 83.528C1054.07 82.968 1054.16 82.464 1054.35 82.016C1054.53 81.5587 1054.78 81.176 1055.07 80.868C1055.38 80.5507 1055.73 80.308 1056.12 80.14C1056.52 79.972 1056.92 79.888 1057.34 79.888C1057.84 79.888 1058.27 79.972 1058.63 80.14C1059 80.308 1059.31 80.5413 1059.55 80.84C1059.81 81.1387 1059.99 81.4933 1060.11 81.904C1060.24 82.3053 1060.3 82.744 1060.3 83.22C1060.3 83.4067 1060.29 83.584 1060.27 83.752C1060.25 83.92 1060.23 84.046 1060.21 84.13H1056.05C1056.15 84.634 1056.35 85.0073 1056.67 85.25C1057 85.4833 1057.39 85.6 1057.86 85.6C1058.36 85.6 1058.85 85.446 1059.36 85.138L1060.04 86.384C1059.69 86.6267 1059.29 86.818 1058.85 86.958C1058.43 87.098 1058 87.168 1057.58 87.168ZM1056.04 82.772H1058.55C1058.55 82.38 1058.46 82.0627 1058.28 81.82C1058.1 81.5773 1057.8 81.456 1057.38 81.456C1057.06 81.456 1056.77 81.5633 1056.52 81.778C1056.27 81.9927 1056.12 82.324 1056.04 82.772ZM1061.72 87V80.056H1063.4L1063.54 80.938H1063.59C1063.89 80.658 1064.22 80.4153 1064.57 80.21C1064.93 79.9953 1065.34 79.888 1065.82 79.888C1066.58 79.888 1067.12 80.1353 1067.46 80.63C1067.8 81.1247 1067.98 81.8107 1067.98 82.688V87H1065.92V82.954C1065.92 82.45 1065.85 82.1047 1065.71 81.918C1065.58 81.7313 1065.36 81.638 1065.06 81.638C1064.8 81.638 1064.58 81.6987 1064.39 81.82C1064.21 81.932 1064 82.0953 1063.78 82.31V87H1061.72ZM1072.4 87.168C1071.97 87.168 1071.61 87.1027 1071.3 86.972C1071 86.8413 1070.75 86.6593 1070.56 86.426C1070.37 86.1927 1070.23 85.9127 1070.14 85.586C1070.05 85.25 1070.01 84.8813 1070.01 84.48V81.666H1069.06V80.14L1070.12 80.056L1070.36 78.208H1072.07V80.056H1073.73V81.666H1072.07V84.452C1072.07 84.844 1072.15 85.1287 1072.31 85.306C1072.47 85.474 1072.69 85.558 1072.96 85.558C1073.08 85.558 1073.19 85.544 1073.3 85.516C1073.42 85.488 1073.53 85.4553 1073.62 85.418L1073.94 86.916C1073.76 86.972 1073.54 87.028 1073.29 87.084C1073.03 87.14 1072.74 87.168 1072.4 87.168ZM1077 87.168C1076.54 87.168 1076.07 87.0793 1075.58 86.902C1075.11 86.7247 1074.69 86.4913 1074.34 86.202L1075.26 84.914C1075.58 85.1567 1075.88 85.3387 1076.17 85.46C1076.46 85.5813 1076.75 85.642 1077.05 85.642C1077.36 85.642 1077.58 85.5907 1077.72 85.488C1077.86 85.3853 1077.93 85.2407 1077.93 85.054C1077.93 84.942 1077.89 84.844 1077.81 84.76C1077.73 84.6667 1077.63 84.5827 1077.49 84.508C1077.36 84.4333 1077.21 84.368 1077.04 84.312C1076.87 84.2467 1076.7 84.1767 1076.52 84.102C1076.31 84.018 1076.09 83.92 1075.88 83.808C1075.66 83.696 1075.47 83.5607 1075.29 83.402C1075.11 83.234 1074.97 83.0427 1074.85 82.828C1074.74 82.604 1074.69 82.3473 1074.69 82.058C1074.69 81.7407 1074.75 81.4467 1074.87 81.176C1075 80.9053 1075.18 80.6767 1075.41 80.49C1075.65 80.3033 1075.93 80.1587 1076.25 80.056C1076.58 79.944 1076.95 79.888 1077.35 79.888C1077.88 79.888 1078.35 79.9813 1078.75 80.168C1079.15 80.3453 1079.5 80.546 1079.8 80.77L1078.87 82.002C1078.62 81.8153 1078.37 81.6707 1078.13 81.568C1077.89 81.4653 1077.65 81.414 1077.4 81.414C1076.88 81.414 1076.62 81.596 1076.62 81.96C1076.62 82.072 1076.66 82.17 1076.73 82.254C1076.81 82.3287 1076.9 82.3987 1077.02 82.464C1077.16 82.5293 1077.3 82.5947 1077.46 82.66C1077.63 82.716 1077.8 82.7767 1077.98 82.842C1078.2 82.926 1078.42 83.024 1078.63 83.136C1078.86 83.2387 1079.06 83.3693 1079.24 83.528C1079.42 83.6867 1079.57 83.8827 1079.68 84.116C1079.8 84.34 1079.85 84.6107 1079.85 84.928C1079.85 85.2453 1079.79 85.5393 1079.67 85.81C1079.55 86.0807 1079.37 86.3187 1079.12 86.524C1078.88 86.72 1078.58 86.8787 1078.23 87C1077.87 87.112 1077.46 87.168 1077 87.168Z" fill="black"/>
<g filter="url(#filter2_d)">
<rect x="830" y="64" width="125" height="50" rx="7" fill="black"/>
<rect x="831" y="65" width="123" height="48" rx="6" stroke="black" stroke-width="2" stroke-miterlimit="16" stroke-linecap="round" stroke-linejoin="round"/>
</g>
<g filter="url(#filter3_d)">
<rect x="838" y="58" width="125" height="50" rx="7" fill="white"/>
<rect x="839" y="59" width="123" height="48" rx="6" stroke="black" stroke-width="2" stroke-miterlimit="16" stroke-linecap="round" stroke-linejoin="round"/>
</g>
<path d="M888.892 87.168C888.453 87.168 888.029 87.0887 887.618 86.93C887.207 86.762 886.843 86.524 886.526 86.216C886.218 85.908 885.971 85.53 885.784 85.082C885.597 84.6247 885.504 84.1067 885.504 83.528C885.504 82.9493 885.597 82.436 885.784 81.988C885.971 81.5307 886.218 81.148 886.526 80.84C886.843 80.532 887.207 80.2987 887.618 80.14C888.029 79.972 888.453 79.888 888.892 79.888C889.331 79.888 889.751 79.972 890.152 80.14C890.563 80.2987 890.922 80.532 891.23 80.84C891.547 81.148 891.799 81.5307 891.986 81.988C892.173 82.436 892.266 82.9493 892.266 83.528C892.266 84.1067 892.173 84.6247 891.986 85.082C891.799 85.53 891.547 85.908 891.23 86.216C890.922 86.524 890.563 86.762 890.152 86.93C889.751 87.0887 889.331 87.168 888.892 87.168ZM888.892 85.502C889.312 85.502 889.629 85.3247 889.844 84.97C890.059 84.6153 890.166 84.1347 890.166 83.528C890.166 82.9213 890.059 82.4407 889.844 82.086C889.629 81.7313 889.312 81.554 888.892 81.554C888.463 81.554 888.141 81.7313 887.926 82.086C887.721 82.4407 887.618 82.9213 887.618 83.528C887.618 84.1347 887.721 84.6153 887.926 84.97C888.141 85.3247 888.463 85.502 888.892 85.502ZM893.676 87V80.056H895.356L895.496 81.274H895.552C895.804 80.798 896.107 80.448 896.462 80.224C896.816 80 897.171 79.888 897.526 79.888C897.722 79.888 897.88 79.902 898.002 79.93C898.132 79.9487 898.249 79.9813 898.352 80.028L898.016 81.806C897.885 81.7687 897.764 81.7407 897.652 81.722C897.54 81.7033 897.409 81.694 897.26 81.694C896.998 81.694 896.723 81.7873 896.434 81.974C896.154 82.1607 895.92 82.492 895.734 82.968V87H893.676ZM901.595 87.168C901.166 87.168 900.774 87.084 900.419 86.916C900.074 86.748 899.775 86.51 899.523 86.202C899.28 85.8847 899.089 85.502 898.949 85.054C898.818 84.606 898.753 84.0973 898.753 83.528C898.753 82.9587 898.832 82.45 898.991 82.002C899.159 81.554 899.374 81.176 899.635 80.868C899.906 80.5507 900.214 80.308 900.559 80.14C900.914 79.972 901.273 79.888 901.637 79.888C902.029 79.888 902.351 79.9533 902.603 80.084C902.855 80.2147 903.102 80.392 903.345 80.616L903.261 79.552V77.186H905.319V87H903.639L903.499 86.314H903.443C903.2 86.5567 902.916 86.762 902.589 86.93C902.262 87.0887 901.931 87.168 901.595 87.168ZM902.127 85.488C902.351 85.488 902.552 85.4413 902.729 85.348C902.916 85.2547 903.093 85.0913 903.261 84.858V82.016C903.074 81.848 902.883 81.7313 902.687 81.666C902.491 81.6007 902.3 81.568 902.113 81.568C901.786 81.568 901.497 81.7267 901.245 82.044C900.993 82.352 900.867 82.8373 900.867 83.5C900.867 84.1907 900.974 84.6947 901.189 85.012C901.413 85.3293 901.726 85.488 902.127 85.488ZM910.25 87.168C909.756 87.168 909.294 87.0887 908.864 86.93C908.435 86.762 908.062 86.524 907.744 86.216C907.427 85.8987 907.18 85.516 907.002 85.068C906.825 84.62 906.736 84.1067 906.736 83.528C906.736 82.968 906.83 82.464 907.016 82.016C907.203 81.5587 907.446 81.176 907.744 80.868C908.052 80.5507 908.402 80.308 908.794 80.14C909.186 79.972 909.592 79.888 910.012 79.888C910.507 79.888 910.936 79.972 911.3 80.14C911.674 80.308 911.982 80.5413 912.224 80.84C912.476 81.1387 912.663 81.4933 912.784 81.904C912.906 82.3053 912.966 82.744 912.966 83.22C912.966 83.4067 912.957 83.584 912.938 83.752C912.92 83.92 912.901 84.046 912.882 84.13H908.724C908.818 84.634 909.023 85.0073 909.34 85.25C909.667 85.4833 910.064 85.6 910.53 85.6C911.025 85.6 911.524 85.446 912.028 85.138L912.714 86.384C912.36 86.6267 911.963 86.818 911.524 86.958C911.095 87.098 910.67 87.168 910.25 87.168ZM908.71 82.772H911.216C911.216 82.38 911.128 82.0627 910.95 81.82C910.773 81.5773 910.474 81.456 910.054 81.456C909.728 81.456 909.438 81.5633 909.186 81.778C908.944 81.9927 908.785 82.324 908.71 82.772ZM914.389 87V80.056H916.069L916.209 81.274H916.265C916.517 80.798 916.82 80.448 917.175 80.224C917.529 80 917.884 79.888 918.239 79.888C918.435 79.888 918.593 79.902 918.715 79.93C918.845 79.9487 918.962 79.9813 919.065 80.028L918.729 81.806C918.598 81.7687 918.477 81.7407 918.365 81.722C918.253 81.7033 918.122 81.694 917.973 81.694C917.711 81.694 917.436 81.7873 917.147 81.974C916.867 82.1607 916.633 82.492 916.447 82.968V87H914.389Z" fill="black"/>
<g filter="url(#filter4_d)">
<rect x="674" y="65" width="125" height="50" rx="7" fill="black"/>
<rect x="675" y="66" width="123" height="48" rx="6" stroke="black" stroke-width="2" stroke-miterlimit="16" stroke-linecap="round" stroke-linejoin="round"/>
</g>
<g filter="url(#filter5_d)">
<rect x="682" y="59" width="125" height="50" rx="7" fill="white"/>
<rect x="683" y="60" width="123" height="48" rx="6" stroke="black" stroke-width="2" stroke-miterlimit="16" stroke-linecap="round" stroke-linejoin="round"/>
</g>
<path d="M721.954 88.168C721.497 88.168 721.025 88.0793 720.54 87.902C720.064 87.7247 719.649 87.4913 719.294 87.202L720.218 85.914C720.535 86.1567 720.839 86.3387 721.128 86.46C721.417 86.5813 721.711 86.642 722.01 86.642C722.318 86.642 722.542 86.5907 722.682 86.488C722.822 86.3853 722.892 86.2407 722.892 86.054C722.892 85.942 722.85 85.844 722.766 85.76C722.691 85.6667 722.584 85.5827 722.444 85.508C722.313 85.4333 722.164 85.368 721.996 85.312C721.828 85.2467 721.655 85.1767 721.478 85.102C721.263 85.018 721.049 84.92 720.834 84.808C720.619 84.696 720.423 84.5607 720.246 84.402C720.069 84.234 719.924 84.0427 719.812 83.828C719.7 83.604 719.644 83.3473 719.644 83.058C719.644 82.7407 719.705 82.4467 719.826 82.176C719.957 81.9053 720.139 81.6767 720.372 81.49C720.605 81.3033 720.885 81.1587 721.212 81.056C721.539 80.944 721.903 80.888 722.304 80.888C722.836 80.888 723.303 80.9813 723.704 81.168C724.105 81.3453 724.455 81.546 724.754 81.77L723.83 83.002C723.578 82.8153 723.331 82.6707 723.088 82.568C722.845 82.4653 722.603 82.414 722.36 82.414C721.837 82.414 721.576 82.596 721.576 82.96C721.576 83.072 721.613 83.17 721.688 83.254C721.763 83.3287 721.861 83.3987 721.982 83.464C722.113 83.5293 722.257 83.5947 722.416 83.66C722.584 83.716 722.757 83.7767 722.934 83.842C723.158 83.926 723.377 84.024 723.592 84.136C723.816 84.2387 724.017 84.3693 724.194 84.528C724.381 84.6867 724.53 84.8827 724.642 85.116C724.754 85.34 724.81 85.6107 724.81 85.928C724.81 86.2453 724.749 86.5393 724.628 86.81C724.507 87.0807 724.325 87.3187 724.082 87.524C723.839 87.72 723.541 87.8787 723.186 88C722.831 88.112 722.421 88.168 721.954 88.168ZM726.117 88V78.186H728.175V80.594L728.077 81.84C728.338 81.6067 728.642 81.392 728.987 81.196C729.332 80.9907 729.743 80.888 730.219 80.888C730.975 80.888 731.521 81.1353 731.857 81.63C732.202 82.1247 732.375 82.8107 732.375 83.688V88H730.317V83.954C730.317 83.45 730.247 83.1047 730.107 82.918C729.976 82.7313 729.762 82.638 729.463 82.638C729.202 82.638 728.978 82.6987 728.791 82.82C728.604 82.932 728.399 83.0953 728.175 83.31V88H726.117ZM734.115 88V81.056H736.173V88H734.115ZM735.137 80.034C734.792 80.034 734.507 79.936 734.283 79.74C734.059 79.5347 733.947 79.2733 733.947 78.956C733.947 78.6387 734.059 78.382 734.283 78.186C734.507 77.99 734.792 77.892 735.137 77.892C735.492 77.892 735.776 77.99 735.991 78.186C736.215 78.382 736.327 78.6387 736.327 78.956C736.327 79.2733 736.215 79.5347 735.991 79.74C735.776 79.936 735.492 80.034 735.137 80.034ZM737.984 90.576V81.056H739.664L739.804 81.742H739.86C740.131 81.4993 740.434 81.2987 740.77 81.14C741.116 80.972 741.47 80.888 741.834 80.888C742.254 80.888 742.632 80.972 742.968 81.14C743.304 81.308 743.589 81.546 743.822 81.854C744.056 82.162 744.233 82.5353 744.354 82.974C744.485 83.4033 744.55 83.884 744.55 84.416C744.55 85.0133 744.466 85.5453 744.298 86.012C744.14 86.4693 743.92 86.8613 743.64 87.188C743.37 87.5053 743.057 87.748 742.702 87.916C742.357 88.084 741.998 88.168 741.624 88.168C741.326 88.168 741.036 88.1073 740.756 87.986C740.476 87.8553 740.215 87.6733 739.972 87.44L740.042 88.546V90.576H737.984ZM741.148 86.488C741.503 86.488 741.806 86.3293 742.058 86.012C742.31 85.6853 742.436 85.1627 742.436 84.444C742.436 83.1933 742.035 82.568 741.232 82.568C740.831 82.568 740.434 82.778 740.042 83.198V86.04C740.229 86.208 740.416 86.3247 740.602 86.39C740.789 86.4553 740.971 86.488 741.148 86.488ZM746.01 90.576V81.056H747.69L747.83 81.742H747.886C748.156 81.4993 748.46 81.2987 748.796 81.14C749.141 80.972 749.496 80.888 749.86 80.888C750.28 80.888 750.658 80.972 750.994 81.14C751.33 81.308 751.614 81.546 751.848 81.854C752.081 82.162 752.258 82.5353 752.38 82.974C752.51 83.4033 752.576 83.884 752.576 84.416C752.576 85.0133 752.492 85.5453 752.324 86.012C752.165 86.4693 751.946 86.8613 751.666 87.188C751.395 87.5053 751.082 87.748 750.728 87.916C750.382 88.084 750.023 88.168 749.65 88.168C749.351 88.168 749.062 88.1073 748.782 87.986C748.502 87.8553 748.24 87.6733 747.998 87.44L748.068 88.546V90.576H746.01ZM749.174 86.488C749.528 86.488 749.832 86.3293 750.084 86.012C750.336 85.6853 750.462 85.1627 750.462 84.444C750.462 83.1933 750.06 82.568 749.258 82.568C748.856 82.568 748.46 82.778 748.068 83.198V86.04C748.254 86.208 748.441 86.3247 748.628 86.39C748.814 86.4553 748.996 86.488 749.174 86.488ZM754.035 88V81.056H756.093V88H754.035ZM755.057 80.034C754.712 80.034 754.427 79.936 754.203 79.74C753.979 79.5347 753.867 79.2733 753.867 78.956C753.867 78.6387 753.979 78.382 754.203 78.186C754.427 77.99 754.712 77.892 755.057 77.892C755.412 77.892 755.696 77.99 755.911 78.186C756.135 78.382 756.247 78.6387 756.247 78.956C756.247 79.2733 756.135 79.5347 755.911 79.74C755.696 79.936 755.412 80.034 755.057 80.034ZM757.904 88V81.056H759.584L759.724 81.938H759.78C760.079 81.658 760.405 81.4153 760.76 81.21C761.115 80.9953 761.53 80.888 762.006 80.888C762.762 80.888 763.308 81.1353 763.644 81.63C763.989 82.1247 764.162 82.8107 764.162 83.688V88H762.104V83.954C762.104 83.45 762.034 83.1047 761.894 82.918C761.763 82.7313 761.549 82.638 761.25 82.638C760.989 82.638 760.765 82.6987 760.578 82.82C760.391 82.932 760.186 83.0953 759.962 83.31V88H757.904ZM768.394 90.954C767.983 90.954 767.601 90.9167 767.246 90.842C766.901 90.7767 766.593 90.674 766.322 90.534C766.061 90.394 765.855 90.212 765.706 89.988C765.557 89.764 765.482 89.498 765.482 89.19C765.482 88.63 765.813 88.1633 766.476 87.79V87.734C766.289 87.6127 766.135 87.4587 766.014 87.272C765.893 87.0853 765.832 86.8473 765.832 86.558C765.832 86.306 765.907 86.068 766.056 85.844C766.205 85.6107 766.392 85.4147 766.616 85.256V85.2C766.373 85.032 766.154 84.794 765.958 84.486C765.771 84.1687 765.678 83.8047 765.678 83.394C765.678 82.974 765.757 82.61 765.916 82.302C766.075 81.9847 766.285 81.7233 766.546 81.518C766.817 81.3033 767.125 81.1447 767.47 81.042C767.815 80.9393 768.175 80.888 768.548 80.888C768.959 80.888 769.318 80.944 769.626 81.056H772.16V82.554H771.054C771.119 82.6567 771.171 82.7873 771.208 82.946C771.255 83.1047 771.278 83.2773 771.278 83.464C771.278 83.8653 771.208 84.2153 771.068 84.514C770.928 84.8033 770.732 85.046 770.48 85.242C770.237 85.4287 769.948 85.5687 769.612 85.662C769.285 85.7553 768.931 85.802 768.548 85.802C768.277 85.802 767.997 85.7553 767.708 85.662C767.615 85.7367 767.549 85.8113 767.512 85.886C767.475 85.9607 767.456 86.0587 767.456 86.18C767.456 86.3573 767.531 86.488 767.68 86.572C767.839 86.656 768.114 86.698 768.506 86.698H769.626C770.485 86.698 771.138 86.838 771.586 87.118C772.043 87.3887 772.272 87.8367 772.272 88.462C772.272 88.826 772.179 89.1573 771.992 89.456C771.815 89.764 771.558 90.0253 771.222 90.24C770.886 90.464 770.48 90.6367 770.004 90.758C769.528 90.8887 768.991 90.954 768.394 90.954ZM768.548 84.556C768.819 84.556 769.043 84.4627 769.22 84.276C769.407 84.08 769.5 83.786 769.5 83.394C769.5 83.03 769.407 82.7547 769.22 82.568C769.043 82.372 768.819 82.274 768.548 82.274C768.277 82.274 768.049 82.3673 767.862 82.554C767.685 82.7407 767.596 83.0207 767.596 83.394C767.596 83.786 767.685 84.08 767.862 84.276C768.049 84.4627 768.277 84.556 768.548 84.556ZM768.716 89.666C769.183 89.666 769.565 89.582 769.864 89.414C770.163 89.2553 770.312 89.0547 770.312 88.812C770.312 88.5973 770.219 88.4527 770.032 88.378C769.855 88.3033 769.593 88.266 769.248 88.266H768.534C768.291 88.266 768.095 88.2567 767.946 88.238C767.797 88.2287 767.666 88.21 767.554 88.182C767.302 88.406 767.176 88.6347 767.176 88.868C767.176 89.1293 767.316 89.3253 767.596 89.456C767.876 89.596 768.249 89.666 768.716 89.666Z" fill="black"/>
<g filter="url(#filter6_d)">
<rect x="674" y="156" width="125" height="50" rx="7" fill="black"/>
<rect x="675" y="157" width="123" height="48" rx="6" stroke="black" stroke-width="2" stroke-miterlimit="16" stroke-linecap="round" stroke-linejoin="round"/>
</g>
<g filter="url(#filter7_d)">
<rect x="682" y="150" width="125" height="50" rx="7" fill="white"/>
<rect x="683" y="151" width="123" height="48" rx="6" stroke="black" stroke-width="2" stroke-miterlimit="16" stroke-linecap="round" stroke-linejoin="round"/>
</g>
<path d="M713.91 178V171.056H715.968V178H713.91ZM714.932 170.034C714.587 170.034 714.302 169.936 714.078 169.74C713.854 169.535 713.742 169.273 713.742 168.956C713.742 168.639 713.854 168.382 714.078 168.186C714.302 167.99 714.587 167.892 714.932 167.892C715.287 167.892 715.571 167.99 715.786 168.186C716.01 168.382 716.122 168.639 716.122 168.956C716.122 169.273 716.01 169.535 715.786 169.74C715.571 169.936 715.287 170.034 714.932 170.034ZM717.779 178V171.056H719.459L719.599 171.938H719.655C719.954 171.658 720.28 171.415 720.635 171.21C720.99 170.995 721.405 170.888 721.881 170.888C722.637 170.888 723.183 171.135 723.519 171.63C723.864 172.125 724.037 172.811 724.037 173.688V178H721.979V173.954C721.979 173.45 721.909 173.105 721.769 172.918C721.638 172.731 721.424 172.638 721.125 172.638C720.864 172.638 720.64 172.699 720.453 172.82C720.266 172.932 720.061 173.095 719.837 173.31V178H717.779ZM727.387 178L725.049 171.056H727.121L728.017 174.332C728.11 174.677 728.199 175.032 728.283 175.396C728.376 175.751 728.47 176.11 728.563 176.474H728.619C728.703 176.11 728.787 175.751 728.871 175.396C728.964 175.032 729.058 174.677 729.151 174.332L730.061 171.056H732.035L729.767 178H727.387ZM736.118 178.168C735.623 178.168 735.161 178.089 734.732 177.93C734.302 177.762 733.929 177.524 733.612 177.216C733.294 176.899 733.047 176.516 732.87 176.068C732.692 175.62 732.604 175.107 732.604 174.528C732.604 173.968 732.697 173.464 732.884 173.016C733.07 172.559 733.313 172.176 733.612 171.868C733.92 171.551 734.27 171.308 734.662 171.14C735.054 170.972 735.46 170.888 735.88 170.888C736.374 170.888 736.804 170.972 737.168 171.14C737.541 171.308 737.849 171.541 738.092 171.84C738.344 172.139 738.53 172.493 738.652 172.904C738.773 173.305 738.834 173.744 738.834 174.22C738.834 174.407 738.824 174.584 738.806 174.752C738.787 174.92 738.768 175.046 738.75 175.13H734.592C734.685 175.634 734.89 176.007 735.208 176.25C735.534 176.483 735.931 176.6 736.398 176.6C736.892 176.6 737.392 176.446 737.896 176.138L738.582 177.384C738.227 177.627 737.83 177.818 737.392 177.958C736.962 178.098 736.538 178.168 736.118 178.168ZM734.578 173.772H737.084C737.084 173.38 736.995 173.063 736.818 172.82C736.64 172.577 736.342 172.456 735.922 172.456C735.595 172.456 735.306 172.563 735.054 172.778C734.811 172.993 734.652 173.324 734.578 173.772ZM740.256 178V171.056H741.936L742.076 171.938H742.132C742.43 171.658 742.757 171.415 743.112 171.21C743.466 170.995 743.882 170.888 744.358 170.888C745.114 170.888 745.66 171.135 745.996 171.63C746.341 172.125 746.514 172.811 746.514 173.688V178H744.456V173.954C744.456 173.45 744.386 173.105 744.246 172.918C744.115 172.731 743.9 172.638 743.602 172.638C743.34 172.638 743.116 172.699 742.93 172.82C742.743 172.932 742.538 173.095 742.314 173.31V178H740.256ZM750.941 178.168C750.512 178.168 750.143 178.103 749.835 177.972C749.537 177.841 749.289 177.659 749.093 177.426C748.907 177.193 748.767 176.913 748.673 176.586C748.589 176.25 748.547 175.881 748.547 175.48V172.666H747.595V171.14L748.659 171.056L748.897 169.208H750.605V171.056H752.271V172.666H750.605V175.452C750.605 175.844 750.685 176.129 750.843 176.306C751.011 176.474 751.231 176.558 751.501 176.558C751.613 176.558 751.725 176.544 751.837 176.516C751.959 176.488 752.066 176.455 752.159 176.418L752.481 177.916C752.295 177.972 752.075 178.028 751.823 178.084C751.571 178.14 751.277 178.168 750.941 178.168ZM756.363 178.168C755.924 178.168 755.499 178.089 755.089 177.93C754.678 177.762 754.314 177.524 753.997 177.216C753.689 176.908 753.441 176.53 753.255 176.082C753.068 175.625 752.975 175.107 752.975 174.528C752.975 173.949 753.068 173.436 753.255 172.988C753.441 172.531 753.689 172.148 753.997 171.84C754.314 171.532 754.678 171.299 755.089 171.14C755.499 170.972 755.924 170.888 756.363 170.888C756.801 170.888 757.221 170.972 757.623 171.14C758.033 171.299 758.393 171.532 758.701 171.84C759.018 172.148 759.27 172.531 759.457 172.988C759.643 173.436 759.737 173.949 759.737 174.528C759.737 175.107 759.643 175.625 759.457 176.082C759.27 176.53 759.018 176.908 758.701 177.216C758.393 177.524 758.033 177.762 757.623 177.93C757.221 178.089 756.801 178.168 756.363 178.168ZM756.363 176.502C756.783 176.502 757.1 176.325 757.315 175.97C757.529 175.615 757.637 175.135 757.637 174.528C757.637 173.921 757.529 173.441 757.315 173.086C757.1 172.731 756.783 172.554 756.363 172.554C755.933 172.554 755.611 172.731 755.397 173.086C755.191 173.441 755.089 173.921 755.089 174.528C755.089 175.135 755.191 175.615 755.397 175.97C755.611 176.325 755.933 176.502 756.363 176.502ZM761.146 178V171.056H762.826L762.966 172.274H763.022C763.274 171.798 763.578 171.448 763.932 171.224C764.287 171 764.642 170.888 764.996 170.888C765.192 170.888 765.351 170.902 765.472 170.93C765.603 170.949 765.72 170.981 765.822 171.028L765.486 172.806C765.356 172.769 765.234 172.741 765.122 172.722C765.01 172.703 764.88 172.694 764.73 172.694C764.469 172.694 764.194 172.787 763.904 172.974C763.624 173.161 763.391 173.492 763.204 173.968V178H761.146ZM767.59 180.716C767.375 180.716 767.193 180.702 767.044 180.674C766.895 180.655 766.75 180.623 766.61 180.576L766.974 179.008C767.039 179.027 767.114 179.045 767.198 179.064C767.282 179.083 767.361 179.092 767.436 179.092C767.781 179.092 768.047 179.008 768.234 178.84C768.421 178.672 768.561 178.453 768.654 178.182L768.752 177.818L766.078 171.056H768.15L769.144 174.038C769.247 174.355 769.34 174.677 769.424 175.004C769.508 175.331 769.597 175.667 769.69 176.012H769.746C769.821 175.685 769.895 175.359 769.97 175.032C770.054 174.696 770.138 174.365 770.222 174.038L771.062 171.056H773.036L770.628 178.07C770.46 178.509 770.283 178.891 770.096 179.218C769.919 179.554 769.709 179.829 769.466 180.044C769.233 180.268 768.962 180.436 768.654 180.548C768.355 180.66 768.001 180.716 767.59 180.716Z" fill="black"/>
<g filter="url(#filter8_d)">
<rect x="471" y="115" width="125" height="50" rx="7" fill="black"/>
<rect x="472" y="116" width="123" height="48" rx="6" stroke="black" stroke-width="2" stroke-miterlimit="16" stroke-linecap="round" stroke-linejoin="round"/>
</g>
<g filter="url(#filter9_d)">
<rect x="479" y="109" width="125" height="50" rx="7" fill="#EAD413"/>
<rect x="480" y="110" width="123" height="48" rx="6" stroke="black" stroke-width="2" stroke-miterlimit="16" stroke-linecap="round" stroke-linejoin="round"/>
</g>
<path d="M530.388 140.954C529.977 140.954 529.595 140.917 529.24 140.842C528.895 140.777 528.587 140.674 528.316 140.534C528.055 140.394 527.849 140.212 527.7 139.988C527.551 139.764 527.476 139.498 527.476 139.19C527.476 138.63 527.807 138.163 528.47 137.79V137.734C528.283 137.613 528.129 137.459 528.008 137.272C527.887 137.085 527.826 136.847 527.826 136.558C527.826 136.306 527.901 136.068 528.05 135.844C528.199 135.611 528.386 135.415 528.61 135.256V135.2C528.367 135.032 528.148 134.794 527.952 134.486C527.765 134.169 527.672 133.805 527.672 133.394C527.672 132.974 527.751 132.61 527.91 132.302C528.069 131.985 528.279 131.723 528.54 131.518C528.811 131.303 529.119 131.145 529.464 131.042C529.809 130.939 530.169 130.888 530.542 130.888C530.953 130.888 531.312 130.944 531.62 131.056H534.154V132.554H533.048C533.113 132.657 533.165 132.787 533.202 132.946C533.249 133.105 533.272 133.277 533.272 133.464C533.272 133.865 533.202 134.215 533.062 134.514C532.922 134.803 532.726 135.046 532.474 135.242C532.231 135.429 531.942 135.569 531.606 135.662C531.279 135.755 530.925 135.802 530.542 135.802C530.271 135.802 529.991 135.755 529.702 135.662C529.609 135.737 529.543 135.811 529.506 135.886C529.469 135.961 529.45 136.059 529.45 136.18C529.45 136.357 529.525 136.488 529.674 136.572C529.833 136.656 530.108 136.698 530.5 136.698H531.62C532.479 136.698 533.132 136.838 533.58 137.118C534.037 137.389 534.266 137.837 534.266 138.462C534.266 138.826 534.173 139.157 533.986 139.456C533.809 139.764 533.552 140.025 533.216 140.24C532.88 140.464 532.474 140.637 531.998 140.758C531.522 140.889 530.985 140.954 530.388 140.954ZM530.542 134.556C530.813 134.556 531.037 134.463 531.214 134.276C531.401 134.08 531.494 133.786 531.494 133.394C531.494 133.03 531.401 132.755 531.214 132.568C531.037 132.372 530.813 132.274 530.542 132.274C530.271 132.274 530.043 132.367 529.856 132.554C529.679 132.741 529.59 133.021 529.59 133.394C529.59 133.786 529.679 134.08 529.856 134.276C530.043 134.463 530.271 134.556 530.542 134.556ZM530.71 139.666C531.177 139.666 531.559 139.582 531.858 139.414C532.157 139.255 532.306 139.055 532.306 138.812C532.306 138.597 532.213 138.453 532.026 138.378C531.849 138.303 531.587 138.266 531.242 138.266H530.528C530.285 138.266 530.089 138.257 529.94 138.238C529.791 138.229 529.66 138.21 529.548 138.182C529.296 138.406 529.17 138.635 529.17 138.868C529.17 139.129 529.31 139.325 529.59 139.456C529.87 139.596 530.243 139.666 530.71 139.666ZM536.879 138.168C536.561 138.168 536.272 138.112 536.011 138C535.759 137.897 535.544 137.753 535.367 137.566C535.189 137.37 535.049 137.146 534.947 136.894C534.853 136.642 534.807 136.367 534.807 136.068C534.807 135.34 535.115 134.771 535.731 134.36C536.347 133.949 537.341 133.674 538.713 133.534C538.694 133.226 538.601 132.983 538.433 132.806C538.274 132.619 538.003 132.526 537.621 132.526C537.322 132.526 537.023 132.582 536.725 132.694C536.435 132.806 536.123 132.96 535.787 133.156L535.045 131.798C535.493 131.527 535.959 131.308 536.445 131.14C536.939 130.972 537.462 130.888 538.013 130.888C538.909 130.888 539.59 131.145 540.057 131.658C540.533 132.162 540.771 132.951 540.771 134.024V138H539.091L538.951 137.286H538.895C538.596 137.547 538.283 137.762 537.957 137.93C537.63 138.089 537.271 138.168 536.879 138.168ZM537.579 136.572C537.812 136.572 538.013 136.521 538.181 136.418C538.349 136.315 538.526 136.171 538.713 135.984V134.766C537.985 134.869 537.481 135.018 537.201 135.214C536.921 135.41 536.781 135.643 536.781 135.914C536.781 136.138 536.851 136.306 536.991 136.418C537.14 136.521 537.336 136.572 537.579 136.572ZM544.939 138.168C544.51 138.168 544.141 138.103 543.833 137.972C543.535 137.841 543.287 137.659 543.091 137.426C542.905 137.193 542.765 136.913 542.671 136.586C542.587 136.25 542.545 135.881 542.545 135.48V132.666H541.593V131.14L542.657 131.056L542.895 129.208H544.603V131.056H546.269V132.666H544.603V135.452C544.603 135.844 544.683 136.129 544.841 136.306C545.009 136.474 545.229 136.558 545.499 136.558C545.611 136.558 545.723 136.544 545.835 136.516C545.957 136.488 546.064 136.455 546.157 136.418L546.479 137.916C546.293 137.972 546.073 138.028 545.821 138.084C545.569 138.14 545.275 138.168 544.939 138.168ZM550.487 138.168C549.992 138.168 549.53 138.089 549.101 137.93C548.671 137.762 548.298 137.524 547.981 137.216C547.663 136.899 547.416 136.516 547.239 136.068C547.061 135.62 546.973 135.107 546.973 134.528C546.973 133.968 547.066 133.464 547.253 133.016C547.439 132.559 547.682 132.176 547.981 131.868C548.289 131.551 548.639 131.308 549.031 131.14C549.423 130.972 549.829 130.888 550.249 130.888C550.743 130.888 551.173 130.972 551.537 131.14C551.91 131.308 552.218 131.541 552.461 131.84C552.713 132.139 552.899 132.493 553.021 132.904C553.142 133.305 553.203 133.744 553.203 134.22C553.203 134.407 553.193 134.584 553.175 134.752C553.156 134.92 553.137 135.046 553.119 135.13H548.961C549.054 135.634 549.259 136.007 549.577 136.25C549.903 136.483 550.3 136.6 550.767 136.6C551.261 136.6 551.761 136.446 552.265 136.138L552.951 137.384C552.596 137.627 552.199 137.818 551.761 137.958C551.331 138.098 550.907 138.168 550.487 138.168ZM548.947 133.772H551.453C551.453 133.38 551.364 133.063 551.187 132.82C551.009 132.577 550.711 132.456 550.291 132.456C549.964 132.456 549.675 132.563 549.423 132.778C549.18 132.993 549.021 133.324 548.947 133.772Z" fill="black"/>
<g filter="url(#filter10_d)">
<rect x="983" y="158" width="125" height="50" rx="7" fill="black"/>
<rect x="984" y="159" width="123" height="48" rx="6" stroke="black" stroke-width="2" stroke-miterlimit="16" stroke-linecap="round" stroke-linejoin="round"/>
</g>
<g filter="url(#filter11_d)">
<rect x="991" y="152" width="125" height="50" rx="7" fill="white"/>
<rect x="992" y="153" width="123" height="48" rx="6" stroke="black" stroke-width="2" stroke-miterlimit="16" stroke-linecap="round" stroke-linejoin="round"/>
</g>
<path d="M1018.91 181V174.056H1020.59L1020.73 174.952H1020.79C1021.08 174.663 1021.38 174.415 1021.71 174.21C1022.04 173.995 1022.43 173.888 1022.89 173.888C1023.38 173.888 1023.78 173.991 1024.08 174.196C1024.38 174.392 1024.63 174.677 1024.8 175.05C1025.11 174.733 1025.43 174.462 1025.77 174.238C1026.12 174.005 1026.52 173.888 1026.99 173.888C1027.73 173.888 1028.28 174.14 1028.63 174.644C1028.98 175.139 1029.16 175.82 1029.16 176.688V181H1027.1V176.954C1027.1 176.45 1027.03 176.105 1026.89 175.918C1026.76 175.731 1026.54 175.638 1026.25 175.638C1025.9 175.638 1025.5 175.862 1025.06 176.31V181H1023V176.954C1023 176.45 1022.93 176.105 1022.79 175.918C1022.66 175.731 1022.44 175.638 1022.14 175.638C1021.79 175.638 1021.4 175.862 1020.97 176.31V181H1018.91ZM1034.02 181.168C1033.53 181.168 1033.07 181.089 1032.64 180.93C1032.21 180.762 1031.83 180.524 1031.52 180.216C1031.2 179.899 1030.95 179.516 1030.77 179.068C1030.6 178.62 1030.51 178.107 1030.51 177.528C1030.51 176.968 1030.6 176.464 1030.79 176.016C1030.97 175.559 1031.22 175.176 1031.52 174.868C1031.82 174.551 1032.17 174.308 1032.57 174.14C1032.96 173.972 1033.36 173.888 1033.78 173.888C1034.28 173.888 1034.71 173.972 1035.07 174.14C1035.45 174.308 1035.75 174.541 1036 174.84C1036.25 175.139 1036.43 175.493 1036.56 175.904C1036.68 176.305 1036.74 176.744 1036.74 177.22C1036.74 177.407 1036.73 177.584 1036.71 177.752C1036.69 177.92 1036.67 178.046 1036.65 178.13H1032.5C1032.59 178.634 1032.79 179.007 1033.11 179.25C1033.44 179.483 1033.84 179.6 1034.3 179.6C1034.8 179.6 1035.3 179.446 1035.8 179.138L1036.49 180.384C1036.13 180.627 1035.73 180.818 1035.3 180.958C1034.87 181.098 1034.44 181.168 1034.02 181.168ZM1032.48 176.772H1034.99C1034.99 176.38 1034.9 176.063 1034.72 175.82C1034.54 175.577 1034.25 175.456 1033.83 175.456C1033.5 175.456 1033.21 175.563 1032.96 175.778C1032.72 175.993 1032.56 176.324 1032.48 176.772ZM1040.2 181.168C1039.75 181.168 1039.28 181.079 1038.79 180.902C1038.31 180.725 1037.9 180.491 1037.54 180.202L1038.47 178.914C1038.79 179.157 1039.09 179.339 1039.38 179.46C1039.67 179.581 1039.96 179.642 1040.26 179.642C1040.57 179.642 1040.79 179.591 1040.93 179.488C1041.07 179.385 1041.14 179.241 1041.14 179.054C1041.14 178.942 1041.1 178.844 1041.02 178.76C1040.94 178.667 1040.83 178.583 1040.69 178.508C1040.56 178.433 1040.41 178.368 1040.25 178.312C1040.08 178.247 1039.91 178.177 1039.73 178.102C1039.51 178.018 1039.3 177.92 1039.08 177.808C1038.87 177.696 1038.67 177.561 1038.5 177.402C1038.32 177.234 1038.17 177.043 1038.06 176.828C1037.95 176.604 1037.89 176.347 1037.89 176.058C1037.89 175.741 1037.95 175.447 1038.08 175.176C1038.21 174.905 1038.39 174.677 1038.62 174.49C1038.86 174.303 1039.14 174.159 1039.46 174.056C1039.79 173.944 1040.15 173.888 1040.55 173.888C1041.09 173.888 1041.55 173.981 1041.95 174.168C1042.36 174.345 1042.71 174.546 1043 174.77L1042.08 176.002C1041.83 175.815 1041.58 175.671 1041.34 175.568C1041.1 175.465 1040.85 175.414 1040.61 175.414C1040.09 175.414 1039.83 175.596 1039.83 175.96C1039.83 176.072 1039.86 176.17 1039.94 176.254C1040.01 176.329 1040.11 176.399 1040.23 176.464C1040.36 176.529 1040.51 176.595 1040.67 176.66C1040.83 176.716 1041.01 176.777 1041.18 176.842C1041.41 176.926 1041.63 177.024 1041.84 177.136C1042.07 177.239 1042.27 177.369 1042.44 177.528C1042.63 177.687 1042.78 177.883 1042.89 178.116C1043 178.34 1043.06 178.611 1043.06 178.928C1043.06 179.245 1043 179.539 1042.88 179.81C1042.76 180.081 1042.57 180.319 1042.33 180.524C1042.09 180.72 1041.79 180.879 1041.44 181C1041.08 181.112 1040.67 181.168 1040.2 181.168ZM1046.41 181.168C1045.95 181.168 1045.48 181.079 1045 180.902C1044.52 180.725 1044.11 180.491 1043.75 180.202L1044.68 178.914C1044.99 179.157 1045.3 179.339 1045.59 179.46C1045.87 179.581 1046.17 179.642 1046.47 179.642C1046.78 179.642 1047 179.591 1047.14 179.488C1047.28 179.385 1047.35 179.241 1047.35 179.054C1047.35 178.942 1047.31 178.844 1047.22 178.76C1047.15 178.667 1047.04 178.583 1046.9 178.508C1046.77 178.433 1046.62 178.368 1046.45 178.312C1046.29 178.247 1046.11 178.177 1045.94 178.102C1045.72 178.018 1045.51 177.92 1045.29 177.808C1045.08 177.696 1044.88 177.561 1044.7 177.402C1044.53 177.234 1044.38 177.043 1044.27 176.828C1044.16 176.604 1044.1 176.347 1044.1 176.058C1044.1 175.741 1044.16 175.447 1044.28 175.176C1044.41 174.905 1044.6 174.677 1044.83 174.49C1045.06 174.303 1045.34 174.159 1045.67 174.056C1046 173.944 1046.36 173.888 1046.76 173.888C1047.29 173.888 1047.76 173.981 1048.16 174.168C1048.56 174.345 1048.91 174.546 1049.21 174.77L1048.29 176.002C1048.04 175.815 1047.79 175.671 1047.55 175.568C1047.3 175.465 1047.06 175.414 1046.82 175.414C1046.29 175.414 1046.03 175.596 1046.03 175.96C1046.03 176.072 1046.07 176.17 1046.15 176.254C1046.22 176.329 1046.32 176.399 1046.44 176.464C1046.57 176.529 1046.71 176.595 1046.87 176.66C1047.04 176.716 1047.21 176.777 1047.39 176.842C1047.62 176.926 1047.83 177.024 1048.05 177.136C1048.27 177.239 1048.47 177.369 1048.65 177.528C1048.84 177.687 1048.99 177.883 1049.1 178.116C1049.21 178.34 1049.27 178.611 1049.27 178.928C1049.27 179.245 1049.21 179.539 1049.09 179.81C1048.96 180.081 1048.78 180.319 1048.54 180.524C1048.3 180.72 1048 180.879 1047.64 181C1047.29 181.112 1046.88 181.168 1046.41 181.168ZM1052.32 181.168C1052.01 181.168 1051.72 181.112 1051.46 181C1051.2 180.897 1050.99 180.753 1050.81 180.566C1050.63 180.37 1050.49 180.146 1050.39 179.894C1050.3 179.642 1050.25 179.367 1050.25 179.068C1050.25 178.34 1050.56 177.771 1051.18 177.36C1051.79 176.949 1052.79 176.674 1054.16 176.534C1054.14 176.226 1054.05 175.983 1053.88 175.806C1053.72 175.619 1053.45 175.526 1053.07 175.526C1052.77 175.526 1052.47 175.582 1052.17 175.694C1051.88 175.806 1051.57 175.96 1051.23 176.156L1050.49 174.798C1050.94 174.527 1051.4 174.308 1051.89 174.14C1052.38 173.972 1052.91 173.888 1053.46 173.888C1054.35 173.888 1055.04 174.145 1055.5 174.658C1055.98 175.162 1056.22 175.951 1056.22 177.024V181H1054.54L1054.4 180.286H1054.34C1054.04 180.547 1053.73 180.762 1053.4 180.93C1053.08 181.089 1052.72 181.168 1052.32 181.168ZM1053.02 179.572C1053.26 179.572 1053.46 179.521 1053.63 179.418C1053.79 179.315 1053.97 179.171 1054.16 178.984V177.766C1053.43 177.869 1052.93 178.018 1052.65 178.214C1052.37 178.41 1052.23 178.643 1052.23 178.914C1052.23 179.138 1052.3 179.306 1052.44 179.418C1052.59 179.521 1052.78 179.572 1053.02 179.572ZM1060.43 183.954C1060.02 183.954 1059.64 183.917 1059.29 183.842C1058.94 183.777 1058.63 183.674 1058.36 183.534C1058.1 183.394 1057.9 183.212 1057.75 182.988C1057.6 182.764 1057.52 182.498 1057.52 182.19C1057.52 181.63 1057.85 181.163 1058.52 180.79V180.734C1058.33 180.613 1058.18 180.459 1058.05 180.272C1057.93 180.085 1057.87 179.847 1057.87 179.558C1057.87 179.306 1057.95 179.068 1058.1 178.844C1058.25 178.611 1058.43 178.415 1058.66 178.256V178.2C1058.41 178.032 1058.19 177.794 1058 177.486C1057.81 177.169 1057.72 176.805 1057.72 176.394C1057.72 175.974 1057.8 175.61 1057.96 175.302C1058.12 174.985 1058.33 174.723 1058.59 174.518C1058.86 174.303 1059.17 174.145 1059.51 174.042C1059.86 173.939 1060.22 173.888 1060.59 173.888C1061 173.888 1061.36 173.944 1061.67 174.056H1064.2V175.554H1063.09C1063.16 175.657 1063.21 175.787 1063.25 175.946C1063.3 176.105 1063.32 176.277 1063.32 176.464C1063.32 176.865 1063.25 177.215 1063.11 177.514C1062.97 177.803 1062.77 178.046 1062.52 178.242C1062.28 178.429 1061.99 178.569 1061.65 178.662C1061.33 178.755 1060.97 178.802 1060.59 178.802C1060.32 178.802 1060.04 178.755 1059.75 178.662C1059.66 178.737 1059.59 178.811 1059.55 178.886C1059.52 178.961 1059.5 179.059 1059.5 179.18C1059.5 179.357 1059.57 179.488 1059.72 179.572C1059.88 179.656 1060.15 179.698 1060.55 179.698H1061.67C1062.53 179.698 1063.18 179.838 1063.63 180.118C1064.08 180.389 1064.31 180.837 1064.31 181.462C1064.31 181.826 1064.22 182.157 1064.03 182.456C1063.86 182.764 1063.6 183.025 1063.26 183.24C1062.93 183.464 1062.52 183.637 1062.04 183.758C1061.57 183.889 1061.03 183.954 1060.43 183.954ZM1060.59 177.556C1060.86 177.556 1061.08 177.463 1061.26 177.276C1061.45 177.08 1061.54 176.786 1061.54 176.394C1061.54 176.03 1061.45 175.755 1061.26 175.568C1061.08 175.372 1060.86 175.274 1060.59 175.274C1060.32 175.274 1060.09 175.367 1059.9 175.554C1059.73 175.741 1059.64 176.021 1059.64 176.394C1059.64 176.786 1059.73 177.08 1059.9 177.276C1060.09 177.463 1060.32 177.556 1060.59 177.556ZM1060.76 182.666C1061.22 182.666 1061.61 182.582 1061.9 182.414C1062.2 182.255 1062.35 182.055 1062.35 181.812C1062.35 181.597 1062.26 181.453 1062.07 181.378C1061.9 181.303 1061.63 181.266 1061.29 181.266H1060.57C1060.33 181.266 1060.14 181.257 1059.99 181.238C1059.84 181.229 1059.71 181.21 1059.59 181.182C1059.34 181.406 1059.22 181.635 1059.22 181.868C1059.22 182.129 1059.36 182.325 1059.64 182.456C1059.92 182.596 1060.29 182.666 1060.76 182.666ZM1065.44 181V174.056H1067.49V181H1065.44ZM1066.46 173.034C1066.11 173.034 1065.83 172.936 1065.6 172.74C1065.38 172.535 1065.27 172.273 1065.27 171.956C1065.27 171.639 1065.38 171.382 1065.6 171.186C1065.83 170.99 1066.11 170.892 1066.46 170.892C1066.81 170.892 1067.1 170.99 1067.31 171.186C1067.54 171.382 1067.65 171.639 1067.65 171.956C1067.65 172.273 1067.54 172.535 1067.31 172.74C1067.1 172.936 1066.81 173.034 1066.46 173.034ZM1069.3 181V174.056H1070.98L1071.12 174.938H1071.18C1071.48 174.658 1071.81 174.415 1072.16 174.21C1072.52 173.995 1072.93 173.888 1073.41 173.888C1074.16 173.888 1074.71 174.135 1075.04 174.63C1075.39 175.125 1075.56 175.811 1075.56 176.688V181H1073.5V176.954C1073.5 176.45 1073.43 176.105 1073.29 175.918C1073.16 175.731 1072.95 175.638 1072.65 175.638C1072.39 175.638 1072.17 175.699 1071.98 175.82C1071.79 175.932 1071.59 176.095 1071.36 176.31V181H1069.3ZM1079.79 183.954C1079.38 183.954 1079 183.917 1078.65 183.842C1078.3 183.777 1077.99 183.674 1077.72 183.534C1077.46 183.394 1077.26 183.212 1077.11 182.988C1076.96 182.764 1076.88 182.498 1076.88 182.19C1076.88 181.63 1077.21 181.163 1077.88 180.79V180.734C1077.69 180.613 1077.54 180.459 1077.41 180.272C1077.29 180.085 1077.23 179.847 1077.23 179.558C1077.23 179.306 1077.31 179.068 1077.46 178.844C1077.61 178.611 1077.79 178.415 1078.02 178.256V178.2C1077.77 178.032 1077.55 177.794 1077.36 177.486C1077.17 177.169 1077.08 176.805 1077.08 176.394C1077.08 175.974 1077.16 175.61 1077.32 175.302C1077.47 174.985 1077.68 174.723 1077.95 174.518C1078.22 174.303 1078.52 174.145 1078.87 174.042C1079.22 173.939 1079.57 173.888 1079.95 173.888C1080.36 173.888 1080.72 173.944 1081.03 174.056H1083.56V175.554H1082.45C1082.52 175.657 1082.57 175.787 1082.61 175.946C1082.65 176.105 1082.68 176.277 1082.68 176.464C1082.68 176.865 1082.61 177.215 1082.47 177.514C1082.33 177.803 1082.13 178.046 1081.88 178.242C1081.64 178.429 1081.35 178.569 1081.01 178.662C1080.69 178.755 1080.33 178.802 1079.95 178.802C1079.68 178.802 1079.4 178.755 1079.11 178.662C1079.01 178.737 1078.95 178.811 1078.91 178.886C1078.87 178.961 1078.86 179.059 1078.86 179.18C1078.86 179.357 1078.93 179.488 1079.08 179.572C1079.24 179.656 1079.51 179.698 1079.91 179.698H1081.03C1081.88 179.698 1082.54 179.838 1082.99 180.118C1083.44 180.389 1083.67 180.837 1083.67 181.462C1083.67 181.826 1083.58 182.157 1083.39 182.456C1083.21 182.764 1082.96 183.025 1082.62 183.24C1082.29 183.464 1081.88 183.637 1081.4 183.758C1080.93 183.889 1080.39 183.954 1079.79 183.954ZM1079.95 177.556C1080.22 177.556 1080.44 177.463 1080.62 177.276C1080.81 177.08 1080.9 176.786 1080.9 176.394C1080.9 176.03 1080.81 175.755 1080.62 175.568C1080.44 175.372 1080.22 175.274 1079.95 175.274C1079.68 175.274 1079.45 175.367 1079.26 175.554C1079.08 175.741 1079 176.021 1079 176.394C1079 176.786 1079.08 177.08 1079.26 177.276C1079.45 177.463 1079.68 177.556 1079.95 177.556ZM1080.12 182.666C1080.58 182.666 1080.97 182.582 1081.26 182.414C1081.56 182.255 1081.71 182.055 1081.71 181.812C1081.71 181.597 1081.62 181.453 1081.43 181.378C1081.25 181.303 1080.99 181.266 1080.65 181.266H1079.93C1079.69 181.266 1079.5 181.257 1079.35 181.238C1079.2 181.229 1079.07 181.21 1078.95 181.182C1078.7 181.406 1078.58 181.635 1078.58 181.868C1078.58 182.129 1078.72 182.325 1079 182.456C1079.28 182.596 1079.65 182.666 1080.12 182.666Z" fill="black"/>
<g filter="url(#filter12_d)">
<rect x="830" y="155" width="125" height="50" rx="7" fill="black"/>
<rect x="831" y="156" width="123" height="48" rx="6" stroke="black" stroke-width="2" stroke-miterlimit="16" stroke-linecap="round" stroke-linejoin="round"/>
</g>
<g filter="url(#filter13_d)">
<rect x="838" y="149" width="125" height="50" rx="7" fill="white"/>
<rect x="839" y="150" width="123" height="48" rx="6" stroke="black" stroke-width="2" stroke-miterlimit="16" stroke-linecap="round" stroke-linejoin="round"/>
</g>
<path d="M875.91 179V172.056H877.968V179H875.91ZM876.932 171.034C876.587 171.034 876.302 170.936 876.078 170.74C875.854 170.535 875.742 170.273 875.742 169.956C875.742 169.639 875.854 169.382 876.078 169.186C876.302 168.99 876.587 168.892 876.932 168.892C877.287 168.892 877.571 168.99 877.786 169.186C878.01 169.382 878.122 169.639 878.122 169.956C878.122 170.273 878.01 170.535 877.786 170.74C877.571 170.936 877.287 171.034 876.932 171.034ZM882.257 179.168C881.828 179.168 881.436 179.084 881.081 178.916C880.736 178.748 880.437 178.51 880.185 178.202C879.942 177.885 879.751 177.502 879.611 177.054C879.48 176.606 879.415 176.097 879.415 175.528C879.415 174.959 879.494 174.45 879.653 174.002C879.821 173.554 880.036 173.176 880.297 172.868C880.568 172.551 880.876 172.308 881.221 172.14C881.576 171.972 881.935 171.888 882.299 171.888C882.691 171.888 883.013 171.953 883.265 172.084C883.517 172.215 883.764 172.392 884.007 172.616L883.923 171.552V169.186H885.981V179H884.301L884.161 178.314H884.105C883.862 178.557 883.578 178.762 883.251 178.93C882.924 179.089 882.593 179.168 882.257 179.168ZM882.789 177.488C883.013 177.488 883.214 177.441 883.391 177.348C883.578 177.255 883.755 177.091 883.923 176.858V174.016C883.736 173.848 883.545 173.731 883.349 173.666C883.153 173.601 882.962 173.568 882.775 173.568C882.448 173.568 882.159 173.727 881.907 174.044C881.655 174.352 881.529 174.837 881.529 175.5C881.529 176.191 881.636 176.695 881.851 177.012C882.075 177.329 882.388 177.488 882.789 177.488ZM890.913 179.168C890.418 179.168 889.956 179.089 889.527 178.93C889.097 178.762 888.724 178.524 888.407 178.216C888.089 177.899 887.842 177.516 887.665 177.068C887.487 176.62 887.399 176.107 887.399 175.528C887.399 174.968 887.492 174.464 887.679 174.016C887.865 173.559 888.108 173.176 888.407 172.868C888.715 172.551 889.065 172.308 889.457 172.14C889.849 171.972 890.255 171.888 890.675 171.888C891.169 171.888 891.599 171.972 891.963 172.14C892.336 172.308 892.644 172.541 892.887 172.84C893.139 173.139 893.325 173.493 893.447 173.904C893.568 174.305 893.629 174.744 893.629 175.22C893.629 175.407 893.619 175.584 893.601 175.752C893.582 175.92 893.563 176.046 893.545 176.13H889.387C889.48 176.634 889.685 177.007 890.003 177.25C890.329 177.483 890.726 177.6 891.193 177.6C891.687 177.6 892.187 177.446 892.691 177.138L893.377 178.384C893.022 178.627 892.625 178.818 892.187 178.958C891.757 179.098 891.333 179.168 890.913 179.168ZM889.373 174.772H891.879C891.879 174.38 891.79 174.063 891.613 173.82C891.435 173.577 891.137 173.456 890.717 173.456C890.39 173.456 890.101 173.563 889.849 173.778C889.606 173.993 889.447 174.324 889.373 174.772ZM895.051 179V172.056H896.731L896.871 172.938H896.927C897.225 172.658 897.552 172.415 897.907 172.21C898.261 171.995 898.677 171.888 899.153 171.888C899.909 171.888 900.455 172.135 900.791 172.63C901.136 173.125 901.309 173.811 901.309 174.688V179H899.251V174.954C899.251 174.45 899.181 174.105 899.041 173.918C898.91 173.731 898.695 173.638 898.397 173.638C898.135 173.638 897.911 173.699 897.725 173.82C897.538 173.932 897.333 174.095 897.109 174.31V179H895.051ZM905.736 179.168C905.307 179.168 904.938 179.103 904.63 178.972C904.332 178.841 904.084 178.659 903.888 178.426C903.702 178.193 903.562 177.913 903.468 177.586C903.384 177.25 903.342 176.881 903.342 176.48V173.666H902.39V172.14L903.454 172.056L903.692 170.208H905.4V172.056H907.066V173.666H905.4V176.452C905.4 176.844 905.48 177.129 905.638 177.306C905.806 177.474 906.026 177.558 906.296 177.558C906.408 177.558 906.52 177.544 906.632 177.516C906.754 177.488 906.861 177.455 906.954 177.418L907.276 178.916C907.09 178.972 906.87 179.028 906.618 179.084C906.366 179.14 906.072 179.168 905.736 179.168ZM908.422 179V172.056H910.48V179H908.422ZM909.444 171.034C909.098 171.034 908.814 170.936 908.59 170.74C908.366 170.535 908.254 170.273 908.254 169.956C908.254 169.639 908.366 169.382 908.59 169.186C908.814 168.99 909.098 168.892 909.444 168.892C909.798 168.892 910.083 168.99 910.298 169.186C910.522 169.382 910.634 169.639 910.634 169.956C910.634 170.273 910.522 170.535 910.298 170.74C910.083 170.936 909.798 171.034 909.444 171.034ZM914.965 179.168C914.536 179.168 914.167 179.103 913.859 178.972C913.56 178.841 913.313 178.659 913.117 178.426C912.93 178.193 912.79 177.913 912.697 177.586C912.613 177.25 912.571 176.881 912.571 176.48V173.666H911.619V172.14L912.683 172.056L912.921 170.208H914.629V172.056H916.295V173.666H914.629V176.452C914.629 176.844 914.708 177.129 914.867 177.306C915.035 177.474 915.254 177.558 915.525 177.558C915.637 177.558 915.749 177.544 915.861 177.516C915.982 177.488 916.09 177.455 916.183 177.418L916.505 178.916C916.318 178.972 916.099 179.028 915.847 179.084C915.595 179.14 915.301 179.168 914.965 179.168ZM918.42 181.716C918.206 181.716 918.024 181.702 917.874 181.674C917.725 181.655 917.58 181.623 917.44 181.576L917.804 180.008C917.87 180.027 917.944 180.045 918.028 180.064C918.112 180.083 918.192 180.092 918.266 180.092C918.612 180.092 918.878 180.008 919.064 179.84C919.251 179.672 919.391 179.453 919.484 179.182L919.582 178.818L916.908 172.056H918.98L919.974 175.038C920.077 175.355 920.17 175.677 920.254 176.004C920.338 176.331 920.427 176.667 920.52 177.012H920.576C920.651 176.685 920.726 176.359 920.8 176.032C920.884 175.696 920.968 175.365 921.052 175.038L921.892 172.056H923.866L921.458 179.07C921.29 179.509 921.113 179.891 920.926 180.218C920.749 180.554 920.539 180.829 920.296 181.044C920.063 181.268 919.792 181.436 919.484 181.548C919.186 181.66 918.831 181.716 918.42 181.716Z" fill="black"/>
<line x1="639.5" y1="47" x2="639.5" y2="231" stroke="black" stroke-dasharray="2 2"/>
<defs>
<filter id="filter0_d" x="975" y="64" width="133" height="58" filterUnits="userSpaceOnUse" color-interpolation-filters="sRGB">
<feFlood flood-opacity="0" result="BackgroundImageFix"/>
<feColorMatrix in="SourceAlpha" type="matrix" values="0 0 0 0 0 0 0 0 0 0 0 0 0 0 0 0 0 0 127 0"/>
<feOffset dy="4"/>
<feGaussianBlur stdDeviation="2"/>
<feColorMatrix type="matrix" values="0 0 0 0 0 0 0 0 0 0 0 0 0 0 0 0 0 0 0.39 0"/>
<feBlend mode="normal" in2="BackgroundImageFix" result="effect1_dropShadow"/>
<feBlend mode="normal" in="SourceGraphic" in2="effect1_dropShadow" result="shape"/>
</filter>
<filter id="filter1_d" x="983" y="58" width="133" height="58" filterUnits="userSpaceOnUse" color-interpolation-filters="sRGB">
<feFlood flood-opacity="0" result="BackgroundImageFix"/>
<feColorMatrix in="SourceAlpha" type="matrix" values="0 0 0 0 0 0 0 0 0 0 0 0 0 0 0 0 0 0 127 0"/>
<feOffset dy="4"/>
<feGaussianBlur stdDeviation="2"/>
<feColorMatrix type="matrix" values="0 0 0 0 0 0 0 0 0 0 0 0 0 0 0 0 0 0 0.39 0"/>
<feBlend mode="normal" in2="BackgroundImageFix" result="effect1_dropShadow"/>
<feBlend mode="normal" in="SourceGraphic" in2="effect1_dropShadow" result="shape"/>
</filter>
<filter id="filter2_d" x="826" y="64" width="133" height="58" filterUnits="userSpaceOnUse" color-interpolation-filters="sRGB">
<feFlood flood-opacity="0" result="BackgroundImageFix"/>
<feColorMatrix in="SourceAlpha" type="matrix" values="0 0 0 0 0 0 0 0 0 0 0 0 0 0 0 0 0 0 127 0"/>
<feOffset dy="4"/>
<feGaussianBlur stdDeviation="2"/>
<feColorMatrix type="matrix" values="0 0 0 0 0 0 0 0 0 0 0 0 0 0 0 0 0 0 0.39 0"/>
<feBlend mode="normal" in2="BackgroundImageFix" result="effect1_dropShadow"/>
<feBlend mode="normal" in="SourceGraphic" in2="effect1_dropShadow" result="shape"/>
</filter>
<filter id="filter3_d" x="834" y="58" width="133" height="58" filterUnits="userSpaceOnUse" color-interpolation-filters="sRGB">
<feFlood flood-opacity="0" result="BackgroundImageFix"/>
<feColorMatrix in="SourceAlpha" type="matrix" values="0 0 0 0 0 0 0 0 0 0 0 0 0 0 0 0 0 0 127 0"/>
<feOffset dy="4"/>
<feGaussianBlur stdDeviation="2"/>
<feColorMatrix type="matrix" values="0 0 0 0 0 0 0 0 0 0 0 0 0 0 0 0 0 0 0.39 0"/>
<feBlend mode="normal" in2="BackgroundImageFix" result="effect1_dropShadow"/>
<feBlend mode="normal" in="SourceGraphic" in2="effect1_dropShadow" result="shape"/>
</filter>
<filter id="filter4_d" x="670" y="65" width="133" height="58" filterUnits="userSpaceOnUse" color-interpolation-filters="sRGB">
<feFlood flood-opacity="0" result="BackgroundImageFix"/>
<feColorMatrix in="SourceAlpha" type="matrix" values="0 0 0 0 0 0 0 0 0 0 0 0 0 0 0 0 0 0 127 0"/>
<feOffset dy="4"/>
<feGaussianBlur stdDeviation="2"/>
<feColorMatrix type="matrix" values="0 0 0 0 0 0 0 0 0 0 0 0 0 0 0 0 0 0 0.39 0"/>
<feBlend mode="normal" in2="BackgroundImageFix" result="effect1_dropShadow"/>
<feBlend mode="normal" in="SourceGraphic" in2="effect1_dropShadow" result="shape"/>
</filter>
<filter id="filter5_d" x="678" y="59" width="133" height="58" filterUnits="userSpaceOnUse" color-interpolation-filters="sRGB">
<feFlood flood-opacity="0" result="BackgroundImageFix"/>
<feColorMatrix in="SourceAlpha" type="matrix" values="0 0 0 0 0 0 0 0 0 0 0 0 0 0 0 0 0 0 127 0"/>
<feOffset dy="4"/>
<feGaussianBlur stdDeviation="2"/>
<feColorMatrix type="matrix" values="0 0 0 0 0 0 0 0 0 0 0 0 0 0 0 0 0 0 0.39 0"/>
<feBlend mode="normal" in2="BackgroundImageFix" result="effect1_dropShadow"/>
<feBlend mode="normal" in="SourceGraphic" in2="effect1_dropShadow" result="shape"/>
</filter>
<filter id="filter6_d" x="670" y="156" width="133" height="58" filterUnits="userSpaceOnUse" color-interpolation-filters="sRGB">
<feFlood flood-opacity="0" result="BackgroundImageFix"/>
<feColorMatrix in="SourceAlpha" type="matrix" values="0 0 0 0 0 0 0 0 0 0 0 0 0 0 0 0 0 0 127 0"/>
<feOffset dy="4"/>
<feGaussianBlur stdDeviation="2"/>
<feColorMatrix type="matrix" values="0 0 0 0 0 0 0 0 0 0 0 0 0 0 0 0 0 0 0.39 0"/>
<feBlend mode="normal" in2="BackgroundImageFix" result="effect1_dropShadow"/>
<feBlend mode="normal" in="SourceGraphic" in2="effect1_dropShadow" result="shape"/>
</filter>
<filter id="filter7_d" x="678" y="150" width="133" height="58" filterUnits="userSpaceOnUse" color-interpolation-filters="sRGB">
<feFlood flood-opacity="0" result="BackgroundImageFix"/>
<feColorMatrix in="SourceAlpha" type="matrix" values="0 0 0 0 0 0 0 0 0 0 0 0 0 0 0 0 0 0 127 0"/>
<feOffset dy="4"/>
<feGaussianBlur stdDeviation="2"/>
<feColorMatrix type="matrix" values="0 0 0 0 0 0 0 0 0 0 0 0 0 0 0 0 0 0 0.39 0"/>
<feBlend mode="normal" in2="BackgroundImageFix" result="effect1_dropShadow"/>
<feBlend mode="normal" in="SourceGraphic" in2="effect1_dropShadow" result="shape"/>
</filter>
<filter id="filter8_d" x="467" y="115" width="133" height="58" filterUnits="userSpaceOnUse" color-interpolation-filters="sRGB">
<feFlood flood-opacity="0" result="BackgroundImageFix"/>
<feColorMatrix in="SourceAlpha" type="matrix" values="0 0 0 0 0 0 0 0 0 0 0 0 0 0 0 0 0 0 127 0"/>
<feOffset dy="4"/>
<feGaussianBlur stdDeviation="2"/>
<feColorMatrix type="matrix" values="0 0 0 0 0 0 0 0 0 0 0 0 0 0 0 0 0 0 0.39 0"/>
<feBlend mode="normal" in2="BackgroundImageFix" result="effect1_dropShadow"/>
<feBlend mode="normal" in="SourceGraphic" in2="effect1_dropShadow" result="shape"/>
</filter>
<filter id="filter9_d" x="475" y="109" width="133" height="58" filterUnits="userSpaceOnUse" color-interpolation-filters="sRGB">
<feFlood flood-opacity="0" result="BackgroundImageFix"/>
<feColorMatrix in="SourceAlpha" type="matrix" values="0 0 0 0 0 0 0 0 0 0 0 0 0 0 0 0 0 0 127 0"/>
<feOffset dy="4"/>
<feGaussianBlur stdDeviation="2"/>
<feColorMatrix type="matrix" values="0 0 0 0 0 0 0 0 0 0 0 0 0 0 0 0 0 0 0.39 0"/>
<feBlend mode="normal" in2="BackgroundImageFix" result="effect1_dropShadow"/>
<feBlend mode="normal" in="SourceGraphic" in2="effect1_dropShadow" result="shape"/>
</filter>
<filter id="filter10_d" x="979" y="158" width="133" height="58" filterUnits="userSpaceOnUse" color-interpolation-filters="sRGB">
<feFlood flood-opacity="0" result="BackgroundImageFix"/>
<feColorMatrix in="SourceAlpha" type="matrix" values="0 0 0 0 0 0 0 0 0 0 0 0 0 0 0 0 0 0 127 0"/>
<feOffset dy="4"/>
<feGaussianBlur stdDeviation="2"/>
<feColorMatrix type="matrix" values="0 0 0 0 0 0 0 0 0 0 0 0 0 0 0 0 0 0 0.39 0"/>
<feBlend mode="normal" in2="BackgroundImageFix" result="effect1_dropShadow"/>
<feBlend mode="normal" in="SourceGraphic" in2="effect1_dropShadow" result="shape"/>
</filter>
<filter id="filter11_d" x="987" y="152" width="133" height="58" filterUnits="userSpaceOnUse" color-interpolation-filters="sRGB">
<feFlood flood-opacity="0" result="BackgroundImageFix"/>
<feColorMatrix in="SourceAlpha" type="matrix" values="0 0 0 0 0 0 0 0 0 0 0 0 0 0 0 0 0 0 127 0"/>
<feOffset dy="4"/>
<feGaussianBlur stdDeviation="2"/>
<feColorMatrix type="matrix" values="0 0 0 0 0 0 0 0 0 0 0 0 0 0 0 0 0 0 0.39 0"/>
<feBlend mode="normal" in2="BackgroundImageFix" result="effect1_dropShadow"/>
<feBlend mode="normal" in="SourceGraphic" in2="effect1_dropShadow" result="shape"/>
</filter>
<filter id="filter12_d" x="826" y="155" width="133" height="58" filterUnits="userSpaceOnUse" color-interpolation-filters="sRGB">
<feFlood flood-opacity="0" result="BackgroundImageFix"/>
<feColorMatrix in="SourceAlpha" type="matrix" values="0 0 0 0 0 0 0 0 0 0 0 0 0 0 0 0 0 0 127 0"/>
<feOffset dy="4"/>
<feGaussianBlur stdDeviation="2"/>
<feColorMatrix type="matrix" values="0 0 0 0 0 0 0 0 0 0 0 0 0 0 0 0 0 0 0.39 0"/>
<feBlend mode="normal" in2="BackgroundImageFix" result="effect1_dropShadow"/>
<feBlend mode="normal" in="SourceGraphic" in2="effect1_dropShadow" result="shape"/>
</filter>
<filter id="filter13_d" x="834" y="149" width="133" height="58" filterUnits="userSpaceOnUse" color-interpolation-filters="sRGB">
<feFlood flood-opacity="0" result="BackgroundImageFix"/>
<feColorMatrix in="SourceAlpha" type="matrix" values="0 0 0 0 0 0 0 0 0 0 0 0 0 0 0 0 0 0 127 0"/>
<feOffset dy="4"/>
<feGaussianBlur stdDeviation="2"/>
<feColorMatrix type="matrix" values="0 0 0 0 0 0 0 0 0 0 0 0 0 0 0 0 0 0 0.39 0"/>
<feBlend mode="normal" in2="BackgroundImageFix" result="effect1_dropShadow"/>
<feBlend mode="normal" in="SourceGraphic" in2="effect1_dropShadow" result="shape"/>
</filter>
</defs>
</svg>
